<svg width="20" height="65" viewBox="0 0 20 65" fill="none" xmlns="http://www.w3.org/2000/svg">
<path fill-rule="evenodd" clip-rule="evenodd" d="M13.2385 11.7968C16.356 9.54575 19.8619 7.0143 19.8619 1.83204C19.8619 0.785146 18.9895 1.14437e-08 18.0299 0C17.0702 -1.14437e-08 16.1978 0.785146 16.1978 1.83204C16.1978 4.97271 14.1913 6.54304 11.0506 8.8113C11.0193 8.83392 10.988 8.85656 10.9566 8.87923C7.83898 11.1303 4.33307 13.6617 4.33307 18.844C4.33307 24.0263 7.83898 26.5577 10.9566 28.8088L11.0506 28.8767C14.2785 31.1449 16.1978 32.7153 16.1978 35.856C16.1978 38.9966 14.1913 40.567 11.0506 42.8352L10.9566 42.9031C7.83898 45.1542 4.33307 47.6857 4.33307 52.8679C4.33307 53.0862 4.3737 53.3 4.44879 53.5H2.00298C0.463382 53.5 -0.498867 55.1667 0.270933 56.5L4.60106 64C5.37086 65.3333 7.29536 65.3333 8.06516 64L12.3953 56.5C13.1651 55.1667 12.2028 53.5 10.6632 53.5H7.88463C7.95709 53.3048 7.99719 53.0924 7.99719 52.8679C7.99719 49.7272 10.0037 48.1569 13.1444 45.8886L13.2385 45.8207C16.356 43.5697 19.8619 41.0382 19.8619 35.856C19.8619 30.6737 16.356 28.1422 13.2385 25.8912L13.1444 25.8233C9.91649 23.555 7.99719 21.9847 7.99719 18.844C7.99719 15.7033 10.0037 14.133 13.1444 11.8647C13.1757 11.8421 13.2071 11.8195 13.2385 11.7968Z" fill="#753DDB"/>
</svg>
