<svg width="2" height="659" viewBox="0 0 2 659" fill="none" xmlns="http://www.w3.org/2000/svg">
<path d="M2 2.00304C2 2.55532 1.55228 3.00304 1 3.00304C0.447715 3.00304 1.11697e-07 2.55532 8.75556e-08 2.00304L2 2.00304ZM5.25334e-07 12.0182C5.01193e-07 11.466 0.447716 11.0182 1 11.0182C1.55229 11.0182 2 11.466 2 12.0182L5.25334e-07 12.0182ZM2 16.0243C2 16.5766 1.55229 17.0243 1 17.0243C0.447716 17.0243 7.24586e-07 16.5766 7.00445e-07 16.0243L2 16.0243ZM1.13822e-06 26.0395C1.11408e-06 25.4872 0.447716 25.0395 1 25.0395C1.55229 25.0395 2 25.4872 2 26.0395L1.13822e-06 26.0395ZM2 30.0456C2 30.5979 1.55229 31.0456 1 31.0456C0.447717 31.0456 1.33748e-06 30.5979 1.31333e-06 30.0456L2 30.0456ZM1.75111e-06 40.0608C1.72697e-06 39.5085 0.447717 39.0608 1 39.0608C1.55229 39.0608 2 39.5085 2 40.0608L1.75111e-06 40.0608ZM2 44.0669C2 44.6192 1.55229 45.0669 1 45.0669C0.447717 45.0669 1.95037e-06 44.6192 1.92622e-06 44.0669L2 44.0669ZM2.364e-06 54.0821C2.33986e-06 53.5298 0.447718 53.0821 1 53.0821C1.55229 53.0821 2 53.5298 2 54.0821L2.364e-06 54.0821ZM2 58.0881C2 58.6404 1.55229 59.0882 1 59.0882C0.447718 59.0882 2.56325e-06 58.6404 2.53911e-06 58.0882L2 58.0881ZM2.97689e-06 68.1033C2.95275e-06 67.5511 0.447718 67.1033 1 67.1033C1.55229 67.1033 2 67.5511 2 68.1033L2.97689e-06 68.1033ZM2 72.1094C2 72.6617 1.55229 73.1094 1 73.1094C0.447718 73.1094 3.17614e-06 72.6617 3.152e-06 72.1094L2 72.1094ZM3.58978e-06 82.1246C3.56564e-06 81.5723 0.447719 81.1246 1 81.1246C1.55229 81.1246 2 81.5723 2 82.1246L3.58978e-06 82.1246ZM2 86.1307C2 86.683 1.55229 87.1307 1 87.1307C0.447719 87.1307 3.78903e-06 86.683 3.76489e-06 86.1307L2 86.1307ZM4.20267e-06 96.1459C4.17853e-06 95.5936 0.447719 95.1459 1 95.1459C1.55229 95.1459 2 95.5936 2 96.1459L4.20267e-06 96.1459ZM2 100.152C2 100.704 1.55229 101.152 1 101.152C0.44772 101.152 4.40192e-06 100.704 4.37778e-06 100.152L2 100.152ZM4.81556e-06 110.167C4.79142e-06 109.615 0.44772 109.167 1 109.167C1.55229 109.167 2 109.615 2 110.167L4.81556e-06 110.167ZM2 114.173C2.00001 114.726 1.55229 115.173 1.00001 115.173C0.44772 115.173 5.01481e-06 114.726 4.99067e-06 114.173L2 114.173ZM5.42845e-06 124.188C5.40431e-06 123.636 0.447721 123.188 1.00001 123.188C1.55229 123.188 2.00001 123.636 2.00001 124.188L5.42845e-06 124.188ZM2.00001 128.195C2.00001 128.747 1.55229 129.195 1.00001 129.195C0.447721 129.195 5.6277e-06 128.747 5.60356e-06 128.195L2.00001 128.195ZM6.04134e-06 138.21C6.0172e-06 137.657 0.447721 137.21 1.00001 137.21C1.55229 137.21 2.00001 137.657 2.00001 138.21L6.04134e-06 138.21ZM2.00001 142.216C2.00001 142.768 1.55229 143.216 1.00001 143.216C0.447721 143.216 6.24059e-06 142.768 6.21645e-06 142.216L2.00001 142.216ZM6.65423e-06 152.231C6.63009e-06 151.679 0.447722 151.231 1.00001 151.231C1.55229 151.231 2.00001 151.679 2.00001 152.231L6.65423e-06 152.231ZM2.00001 156.237C2.00001 156.789 1.55229 157.237 1.00001 157.237C0.447722 157.237 6.85348e-06 156.789 6.82934e-06 156.237L2.00001 156.237ZM7.26712e-06 166.252C7.24298e-06 165.7 0.447722 165.252 1.00001 165.252C1.55229 165.252 2.00001 165.7 2.00001 166.252L7.26712e-06 166.252ZM2.00001 170.258C2.00001 170.811 1.55229 171.258 1.00001 171.258C0.447723 171.258 7.46637e-06 170.811 7.44223e-06 170.258L2.00001 170.258ZM7.88001e-06 180.274C7.85587e-06 179.721 0.447723 179.274 1.00001 179.274C1.55229 179.274 2.00001 179.721 2.00001 180.274L7.88001e-06 180.274ZM2.00001 184.28C2.00001 184.832 1.55229 185.28 1.00001 185.28C0.447723 185.28 8.07926e-06 184.832 8.05512e-06 184.28L2.00001 184.28ZM8.4929e-06 194.295C8.46875e-06 193.743 0.447724 193.295 1.00001 193.295C1.55229 193.295 2.00001 193.743 2.00001 194.295L8.4929e-06 194.295ZM2.00001 198.301C2.00001 198.853 1.55229 199.301 1.00001 199.301C0.447724 199.301 8.69215e-06 198.853 8.66801e-06 198.301L2.00001 198.301ZM9.10579e-06 208.316C9.08164e-06 207.764 0.447724 207.316 1.00001 207.316C1.55229 207.316 2.00001 207.764 2.00001 208.316L9.10579e-06 208.316ZM2.00001 212.322C2.00001 212.874 1.55229 213.322 1.00001 213.322C0.447725 213.322 9.30504e-06 212.874 9.2809e-06 212.322L2.00001 212.322ZM9.71867e-06 222.337C9.69453e-06 221.785 0.447725 221.337 1.00001 221.337C1.55229 221.337 2.00001 221.785 2.00001 222.337L9.71867e-06 222.337ZM2.00001 226.343C2.00001 226.896 1.55229 227.343 1.00001 227.343C0.447725 227.343 9.91793e-06 226.896 9.89379e-06 226.343L2.00001 226.343ZM1.03316e-05 236.359C1.03074e-05 235.806 0.447726 235.359 1.00001 235.359C1.5523 235.359 2.00001 235.806 2.00001 236.359L1.03316e-05 236.359ZM2.00001 240.365C2.00001 240.917 1.5523 241.365 1.00001 241.365C0.447726 241.365 1.05308e-05 240.917 1.05067e-05 240.365L2.00001 240.365ZM1.09445e-05 250.38C1.09203e-05 249.828 0.447726 249.38 1.00001 249.38C1.5523 249.38 2.00001 249.828 2.00001 250.38L1.09445e-05 250.38ZM2.00001 254.386C2.00001 254.938 1.5523 255.386 1.00001 255.386C0.447726 255.386 1.11437e-05 254.938 1.11196e-05 254.386L2.00001 254.386ZM1.15573e-05 264.401C1.15332e-05 263.849 0.447727 263.401 1.00001 263.401C1.5523 263.401 2.00001 263.849 2.00001 264.401L1.15573e-05 264.401ZM2.00001 268.407C2.00001 268.96 1.5523 269.407 1.00001 269.407C0.447727 269.407 1.17566e-05 268.96 1.17325e-05 268.407L2.00001 268.407ZM1.21702e-05 278.422C1.21461e-05 277.87 0.447727 277.422 1.00001 277.422C1.5523 277.422 2.00001 277.87 2.00001 278.422L1.21702e-05 278.422ZM2.00001 282.429C2.00001 282.981 1.5523 283.429 1.00001 283.429C0.447728 283.429 1.23695e-05 282.981 1.23453e-05 282.429L2.00001 282.429ZM1.27831e-05 292.444C1.2759e-05 291.891 0.447728 291.444 1.00001 291.444C1.5523 291.444 2.00001 291.891 2.00001 292.444L1.27831e-05 292.444ZM2.00001 296.45C2.00001 297.002 1.5523 297.45 1.00001 297.45C0.447728 297.45 1.29824e-05 297.002 1.29582e-05 296.45L2.00001 296.45ZM1.3396e-05 306.465C1.33719e-05 305.913 0.447729 305.465 1.00001 305.465C1.5523 305.465 2.00001 305.913 2.00001 306.465L1.3396e-05 306.465ZM2.00001 310.471C2.00001 311.023 1.5523 311.471 1.00001 311.471C0.447729 311.471 1.35953e-05 311.023 1.35711e-05 310.471L2.00001 310.471ZM1.40089e-05 320.486C1.39848e-05 319.934 0.447729 319.486 1.00001 319.486C1.5523 319.486 2.00001 319.934 2.00001 320.486L1.40089e-05 320.486ZM2.00001 324.492C2.00001 325.045 1.5523 325.492 1.00001 325.492C0.447729 325.492 1.42082e-05 325.045 1.4184e-05 324.492L2.00001 324.492ZM1.46218e-05 334.508C1.45976e-05 333.955 0.44773 333.508 1.00001 333.508C1.5523 333.508 2.00001 333.955 2.00001 334.508L1.46218e-05 334.508ZM2.00001 338.514C2.00001 339.066 1.5523 339.514 1.00001 339.514C0.44773 339.514 1.4821e-05 339.066 1.47969e-05 338.514L2.00001 338.514ZM1.52347e-05 348.529C1.52105e-05 347.977 0.44773 347.529 1.00002 347.529C1.5523 347.529 2.00002 347.977 2.00002 348.529L1.52347e-05 348.529ZM2.00002 352.535C2.00002 353.087 1.5523 353.535 1.00002 353.535C0.447731 353.535 1.54339e-05 353.087 1.54098e-05 352.535L2.00002 352.535ZM1.58476e-05 362.55C1.58234e-05 361.998 0.447731 361.55 1.00002 361.55C1.5523 361.55 2.00002 361.998 2.00002 362.55L1.58476e-05 362.55ZM2.00002 366.556C2.00002 367.108 1.5523 367.556 1.00002 367.556C0.447731 367.556 1.60468e-05 367.108 1.60227e-05 366.556L2.00002 366.556ZM1.64605e-05 376.571C1.64363e-05 376.019 0.447732 375.571 1.00002 375.571C1.5523 375.571 2.00002 376.019 2.00002 376.571L1.64605e-05 376.571ZM2.00002 380.577C2.00002 381.13 1.5523 381.577 1.00002 381.577C0.447732 381.577 1.66597e-05 381.13 1.66356e-05 380.577L2.00002 380.577ZM1.70733e-05 390.593C1.70492e-05 390.04 0.447732 389.593 1.00002 389.593C1.5523 389.593 2.00002 390.04 2.00002 390.593L1.70733e-05 390.593ZM2.00002 394.599C2.00002 395.151 1.5523 395.599 1.00002 395.599C0.447733 395.599 1.72726e-05 395.151 1.72485e-05 394.599L2.00002 394.599ZM1.76862e-05 404.614C1.76621e-05 404.062 0.447733 403.614 1.00002 403.614C1.5523 403.614 2.00002 404.062 2.00002 404.614L1.76862e-05 404.614ZM2.00002 408.62C2.00002 409.172 1.5523 409.62 1.00002 409.62C0.447733 409.62 1.78855e-05 409.172 1.78613e-05 408.62L2.00002 408.62ZM1.82991e-05 418.635C1.8275e-05 418.083 0.447733 417.635 1.00002 417.635C1.5523 417.635 2.00002 418.083 2.00002 418.635L1.82991e-05 418.635ZM2.00002 422.641C2.00002 423.194 1.5523 423.641 1.00002 423.641C0.447734 423.641 1.84984e-05 423.194 1.84742e-05 422.641L2.00002 422.641ZM1.8912e-05 432.656C1.88879e-05 432.104 0.447734 431.656 1.00002 431.656C1.5523 431.656 2.00002 432.104 2.00002 432.656L1.8912e-05 432.656ZM2.00002 436.663C2.00002 437.215 1.5523 437.663 1.00002 437.663C0.447734 437.663 1.91113e-05 437.215 1.90871e-05 436.663L2.00002 436.663ZM1.95249e-05 446.678C1.95008e-05 446.125 0.447735 445.678 1.00002 445.678C1.5523 445.678 2.00002 446.125 2.00002 446.678L1.95249e-05 446.678ZM2.00002 450.684C2.00002 451.236 1.5523 451.684 1.00002 451.684C0.447735 451.684 1.97242e-05 451.236 1.97e-05 450.684L2.00002 450.684ZM2.01378e-05 460.699C2.01137e-05 460.147 0.447735 459.699 1.00002 459.699C1.5523 459.699 2.00002 460.147 2.00002 460.699L2.01378e-05 460.699ZM2.00002 464.705C2.00002 465.257 1.55231 465.705 1.00002 465.705C0.447736 465.705 2.0337e-05 465.257 2.03129e-05 464.705L2.00002 464.705ZM2.07507e-05 474.72C2.07265e-05 474.168 0.447736 473.72 1.00002 473.72C1.55231 473.72 2.00002 474.168 2.00002 474.72L2.07507e-05 474.72ZM2.00002 478.726C2.00002 479.279 1.55231 479.726 1.00002 479.726C0.447736 479.726 2.09499e-05 479.279 2.09258e-05 478.726L2.00002 478.726ZM2.13636e-05 488.742C2.13394e-05 488.189 0.447737 487.742 1.00002 487.742C1.55231 487.742 2.00002 488.189 2.00002 488.742L2.13636e-05 488.742ZM2.00002 492.748C2.00002 493.3 1.55231 493.748 1.00002 493.748C0.447737 493.748 2.15628e-05 493.3 2.15387e-05 492.748L2.00002 492.748ZM2.19765e-05 502.763C2.19523e-05 502.211 0.447737 501.763 1.00002 501.763C1.55231 501.763 2.00002 502.211 2.00002 502.763L2.19765e-05 502.763ZM2.00002 506.769C2.00002 507.321 1.55231 507.769 1.00002 507.769C0.447737 507.769 2.21757e-05 507.321 2.21516e-05 506.769L2.00002 506.769ZM2.25893e-05 516.784C2.25652e-05 516.232 0.447738 515.784 1.00002 515.784C1.55231 515.784 2.00002 516.232 2.00002 516.784L2.25893e-05 516.784ZM2.00002 520.79C2.00002 521.342 1.55231 521.79 1.00002 521.79C0.447738 521.79 2.27886e-05 521.342 2.27645e-05 520.79L2.00002 520.79ZM2.32022e-05 530.805C2.31781e-05 530.253 0.447738 529.805 1.00002 529.805C1.55231 529.805 2.00002 530.253 2.00002 530.805L2.32022e-05 530.805ZM2.00002 534.811C2.00002 535.364 1.55231 535.811 1.00002 535.811C0.447739 535.811 2.34015e-05 535.364 2.33774e-05 534.811L2.00002 534.811ZM2.38151e-05 544.827C2.3791e-05 544.274 0.447739 543.827 1.00002 543.827C1.55231 543.827 2.00002 544.274 2.00002 544.827L2.38151e-05 544.827ZM2.00002 548.833C2.00002 549.385 1.55231 549.833 1.00002 549.833C0.447739 549.833 2.40144e-05 549.385 2.39902e-05 548.833L2.00002 548.833ZM2.4428e-05 558.848C2.44039e-05 558.296 0.44774 557.848 1.00002 557.848C1.55231 557.848 2.00002 558.296 2.00002 558.848L2.4428e-05 558.848ZM2.00002 562.854C2.00002 563.406 1.55231 563.854 1.00002 563.854C0.44774 563.854 2.46273e-05 563.406 2.46031e-05 562.854L2.00002 562.854ZM2.50409e-05 572.869C2.50168e-05 572.317 0.44774 571.869 1.00002 571.869C1.55231 571.869 2.00003 572.317 2.00003 572.869L2.50409e-05 572.869ZM2.00003 576.875C2.00003 577.428 1.55231 577.875 1.00003 577.875C0.44774 577.875 2.52402e-05 577.428 2.5216e-05 576.875L2.00003 576.875ZM2.56538e-05 586.891C2.56297e-05 586.338 0.447741 585.891 1.00003 585.891C1.55231 585.891 2.00003 586.338 2.00003 586.891L2.56538e-05 586.891ZM2.00003 590.897C2.00003 591.449 1.55231 591.897 1.00003 591.897C0.447741 591.897 2.58531e-05 591.449 2.58289e-05 590.897L2.00003 590.897ZM2.62667e-05 600.912C2.62426e-05 600.36 0.447741 599.912 1.00003 599.912C1.55231 599.912 2.00003 600.36 2.00003 600.912L2.62667e-05 600.912ZM2.00003 604.918C2.00003 605.47 1.55231 605.918 1.00003 605.918C0.447742 605.918 2.64659e-05 605.47 2.64418e-05 604.918L2.00003 604.918ZM2.68796e-05 614.933C2.68554e-05 614.381 0.447742 613.933 1.00003 613.933C1.55231 613.933 2.00003 614.381 2.00003 614.933L2.68796e-05 614.933ZM2.00003 618.939C2.00003 619.492 1.55231 619.939 1.00003 619.939C0.447742 619.939 2.70788e-05 619.492 2.70547e-05 618.939L2.00003 618.939ZM2.74925e-05 628.954C2.74683e-05 628.402 0.447743 627.954 1.00003 627.954C1.55231 627.954 2.00003 628.402 2.00003 628.954L2.74925e-05 628.954ZM2.00003 632.961C2.00003 633.513 1.55231 633.961 1.00003 633.961C0.447743 633.961 2.76917e-05 633.513 2.76676e-05 632.961L2.00003 632.961ZM2.81054e-05 642.976C2.80812e-05 642.424 0.447743 641.976 1.00003 641.976C1.55231 641.976 2.00003 642.424 2.00003 642.976L2.81054e-05 642.976ZM2.00003 646.982C2.00003 647.534 1.55231 647.982 1.00003 647.982C0.447744 647.982 2.83046e-05 647.534 2.82805e-05 646.982L2.00003 646.982ZM2.87183e-05 656.997C2.86941e-05 656.445 0.447744 655.997 1.00003 655.997C1.55231 655.997 2.00003 656.445 2.00003 656.997L2.87183e-05 656.997ZM2 -4.37114e-08L2 2.00304L8.75556e-08 2.00304L0 4.37114e-08L2 -4.37114e-08ZM2 12.0182L2 16.0243L7.00445e-07 16.0243L5.25334e-07 12.0182L2 12.0182ZM2 26.0395L2 30.0456L1.31333e-06 30.0456L1.13822e-06 26.0395L2 26.0395ZM2 40.0608L2 44.0669L1.92622e-06 44.0669L1.75111e-06 40.0608L2 40.0608ZM2 54.0821L2 58.0881L2.53911e-06 58.0882L2.364e-06 54.0821L2 54.0821ZM2 68.1033L2 72.1094L3.152e-06 72.1094L2.97689e-06 68.1033L2 68.1033ZM2 82.1246L2 86.1307L3.76489e-06 86.1307L3.58978e-06 82.1246L2 82.1246ZM2 96.1459L2 100.152L4.37778e-06 100.152L4.20267e-06 96.1459L2 96.1459ZM2 110.167L2 114.173L4.99067e-06 114.173L4.81556e-06 110.167L2 110.167ZM2.00001 124.188L2.00001 128.195L5.60356e-06 128.195L5.42845e-06 124.188L2.00001 124.188ZM2.00001 138.21L2.00001 142.216L6.21645e-06 142.216L6.04134e-06 138.21L2.00001 138.21ZM2.00001 152.231L2.00001 156.237L6.82934e-06 156.237L6.65423e-06 152.231L2.00001 152.231ZM2.00001 166.252L2.00001 170.258L7.44223e-06 170.258L7.26712e-06 166.252L2.00001 166.252ZM2.00001 180.274L2.00001 184.28L8.05512e-06 184.28L7.88001e-06 180.274L2.00001 180.274ZM2.00001 194.295L2.00001 198.301L8.66801e-06 198.301L8.4929e-06 194.295L2.00001 194.295ZM2.00001 208.316L2.00001 212.322L9.2809e-06 212.322L9.10579e-06 208.316L2.00001 208.316ZM2.00001 222.337L2.00001 226.343L9.89379e-06 226.343L9.71867e-06 222.337L2.00001 222.337ZM2.00001 236.359L2.00001 240.365L1.05067e-05 240.365L1.03316e-05 236.359L2.00001 236.359ZM2.00001 250.38L2.00001 254.386L1.11196e-05 254.386L1.09445e-05 250.38L2.00001 250.38ZM2.00001 264.401L2.00001 268.407L1.17325e-05 268.407L1.15573e-05 264.401L2.00001 264.401ZM2.00001 278.422L2.00001 282.429L1.23453e-05 282.429L1.21702e-05 278.422L2.00001 278.422ZM2.00001 292.444L2.00001 296.45L1.29582e-05 296.45L1.27831e-05 292.444L2.00001 292.444ZM2.00001 306.465L2.00001 310.471L1.35711e-05 310.471L1.3396e-05 306.465L2.00001 306.465ZM2.00001 320.486L2.00001 324.492L1.4184e-05 324.492L1.40089e-05 320.486L2.00001 320.486ZM2.00001 334.508L2.00001 338.514L1.47969e-05 338.514L1.46218e-05 334.508L2.00001 334.508ZM2.00002 348.529L2.00002 352.535L1.54098e-05 352.535L1.52347e-05 348.529L2.00002 348.529ZM2.00002 362.55L2.00002 366.556L1.60227e-05 366.556L1.58476e-05 362.55L2.00002 362.55ZM2.00002 376.571L2.00002 380.577L1.66356e-05 380.577L1.64605e-05 376.571L2.00002 376.571ZM2.00002 390.593L2.00002 394.599L1.72485e-05 394.599L1.70733e-05 390.593L2.00002 390.593ZM2.00002 404.614L2.00002 408.62L1.78613e-05 408.62L1.76862e-05 404.614L2.00002 404.614ZM2.00002 418.635L2.00002 422.641L1.84742e-05 422.641L1.82991e-05 418.635L2.00002 418.635ZM2.00002 432.656L2.00002 436.663L1.90871e-05 436.663L1.8912e-05 432.656L2.00002 432.656ZM2.00002 446.678L2.00002 450.684L1.97e-05 450.684L1.95249e-05 446.678L2.00002 446.678ZM2.00002 460.699L2.00002 464.705L2.03129e-05 464.705L2.01378e-05 460.699L2.00002 460.699ZM2.00002 474.72L2.00002 478.726L2.09258e-05 478.726L2.07507e-05 474.72L2.00002 474.72ZM2.00002 488.742L2.00002 492.748L2.15387e-05 492.748L2.13636e-05 488.742L2.00002 488.742ZM2.00002 502.763L2.00002 506.769L2.21516e-05 506.769L2.19765e-05 502.763L2.00002 502.763ZM2.00002 516.784L2.00002 520.79L2.27645e-05 520.79L2.25893e-05 516.784L2.00002 516.784ZM2.00002 530.805L2.00002 534.811L2.33774e-05 534.811L2.32022e-05 530.805L2.00002 530.805ZM2.00002 544.827L2.00002 548.833L2.39902e-05 548.833L2.38151e-05 544.827L2.00002 544.827ZM2.00002 558.848L2.00002 562.854L2.46031e-05 562.854L2.4428e-05 558.848L2.00002 558.848ZM2.00003 572.869L2.00003 576.875L2.5216e-05 576.875L2.50409e-05 572.869L2.00003 572.869ZM2.00003 586.891L2.00003 590.897L2.58289e-05 590.897L2.56538e-05 586.891L2.00003 586.891ZM2.00003 600.912L2.00003 604.918L2.64418e-05 604.918L2.62667e-05 600.912L2.00003 600.912ZM2.00003 614.933L2.00003 618.939L2.70547e-05 618.939L2.68796e-05 614.933L2.00003 614.933ZM2.00003 628.954L2.00003 632.961L2.76676e-05 632.961L2.74925e-05 628.954L2.00003 628.954ZM2.00003 642.976L2.00003 646.982L2.82805e-05 646.982L2.81054e-05 642.976L2.00003 642.976ZM2.00003 656.997L2.00003 659L2.88058e-05 659L2.87183e-05 656.997L2.00003 656.997Z" fill="url(#paint0_linear)"/>
<defs>
<linearGradient id="paint0_linear" x1="0.5" y1="2.18557e-08" x2="0.500029" y2="659" gradientUnits="userSpaceOnUse">
<stop stop-color="#753DDB"/>
<stop offset="0.817708" stop-color="#E54E73"/>
</linearGradient>
</defs>
</svg>
