<svg width="761" height="495" viewBox="0 0 761 495" fill="none" xmlns="http://www.w3.org/2000/svg">
<path d="M402.683 378.205H19.2225C10.3001 378.205 3 369.979 3 359.924V21.2804C3 11.2262 10.3001 3 19.2225 3H402.683C411.605 3 418.905 11.2262 418.905 21.2804V360.153C418.905 370.207 411.605 378.205 402.683 378.205Z" stroke="url(#paint0_linear)" stroke-width="6" stroke-miterlimit="10" stroke-linecap="round" stroke-linejoin="round"/>
<path opacity="0.7" d="M25.4375 28.894C27.6467 28.894 29.4375 27.1032 29.4375 24.894C29.4375 22.6849 27.6467 20.894 25.4375 20.894C23.2284 20.894 21.4375 22.6849 21.4375 24.894C21.4375 27.1032 23.2284 28.894 25.4375 28.894Z" fill="#753DDB"/>
<path opacity="0.7" d="M41.4375 28.894C43.6467 28.894 45.4375 27.1032 45.4375 24.894C45.4375 22.6849 43.6467 20.894 41.4375 20.894C39.2284 20.894 37.4375 22.6849 37.4375 24.894C37.4375 27.1032 39.2284 28.894 41.4375 28.894Z" fill="#753DDB"/>
<path opacity="0.7" d="M57.4375 28.894C59.6467 28.894 61.4375 27.1032 61.4375 24.894C61.4375 22.6849 59.6467 20.894 57.4375 20.894C55.2284 20.894 53.4375 22.6849 53.4375 24.894C53.4375 27.1032 55.2284 28.894 57.4375 28.894Z" fill="#753DDB"/>
<g opacity="0.9">
<path d="M251.93 78.8165H278.278" stroke="white" stroke-width="6" stroke-miterlimit="10" stroke-linecap="round" stroke-linejoin="round"/>
<path d="M118.365 78.8165H232.473" stroke="#7BFFA0" stroke-width="6" stroke-miterlimit="10" stroke-linecap="round" stroke-linejoin="round"/>
<path d="M62.0205 78.8167H102.151" stroke="#9169FF" stroke-width="6" stroke-miterlimit="10" stroke-linecap="round" stroke-linejoin="round"/>
</g>
<g opacity="0.9">
<path d="M114.312 282.319H201.463" stroke="#9169FF" stroke-width="6" stroke-miterlimit="10" stroke-linecap="round" stroke-linejoin="round"/>
<path d="M62.0205 282.319H90.1929" stroke="#7BFFA0" stroke-width="6" stroke-miterlimit="10" stroke-linecap="round" stroke-linejoin="round"/>
</g>
<g opacity="0.9">
<path d="M232.473 104.255H248.89" stroke="white" stroke-width="6" stroke-miterlimit="10" stroke-linecap="round" stroke-linejoin="round"/>
<path d="M157.888 104.255H213.016" stroke="#9169FF" stroke-width="6" stroke-miterlimit="10" stroke-linecap="round" stroke-linejoin="round"/>
<path d="M82.0854 104.254H138.227" stroke="#FFC47D" stroke-width="6" stroke-miterlimit="10" stroke-linecap="round" stroke-linejoin="round"/>
</g>
<g opacity="0.9">
<path d="M169.035 129.692H217.475" stroke="white" stroke-width="6" stroke-miterlimit="10" stroke-linecap="round" stroke-linejoin="round"/>
<path d="M108.231 129.692H153.834" stroke="#FF5757" stroke-width="6" stroke-miterlimit="10" stroke-linecap="round" stroke-linejoin="round"/>
</g>
<g opacity="0.9">
<path d="M175.521 155.13H185.452" stroke="white" stroke-width="6" stroke-miterlimit="10" stroke-linecap="round" stroke-linejoin="round"/>
<path d="M135.39 155.13H157.888" stroke="#9169FF" stroke-width="6" stroke-miterlimit="10" stroke-linecap="round" stroke-linejoin="round"/>
<path d="M82.0854 155.13H118.365" stroke="#7BFFA0" stroke-width="6" stroke-miterlimit="10" stroke-linecap="round" stroke-linejoin="round"/>
</g>
<g opacity="0.9">
<path d="M159.914 180.567H224.569" stroke="#FFC47D" stroke-width="6" stroke-miterlimit="10" stroke-linecap="round" stroke-linejoin="round"/>
<path d="M82.0854 180.567H140.052" stroke="#FF5757" stroke-width="6" stroke-miterlimit="10" stroke-linecap="round" stroke-linejoin="round"/>
</g>
<g opacity="0.9">
<path d="M234.703 206.005H269.767" stroke="#9169FF" stroke-width="6" stroke-miterlimit="10" stroke-linecap="round" stroke-linejoin="round"/>
<path d="M159.915 206.005H216.057" stroke="#FF5757" stroke-width="6" stroke-miterlimit="10" stroke-linecap="round" stroke-linejoin="round"/>
<path d="M108.231 206.005H140.052" stroke="#7BFFA0" stroke-width="6" stroke-miterlimit="10" stroke-linecap="round" stroke-linejoin="round"/>
</g>
<g opacity="0.9">
<path d="M185.452 231.443H216.057" stroke="white" stroke-width="6" stroke-miterlimit="10" stroke-linecap="round" stroke-linejoin="round"/>
<path d="M108.231 231.444H164.373" stroke="#9169FF" stroke-width="6" stroke-miterlimit="10" stroke-linecap="round" stroke-linejoin="round"/>
</g>
<g opacity="0.9">
<path d="M265.104 256.881H300.168" stroke="white" stroke-width="6" stroke-miterlimit="10" stroke-linecap="round" stroke-linejoin="round"/>
<path d="M157.888 256.881H246.053" stroke="#FFC47D" stroke-width="6" stroke-miterlimit="10" stroke-linecap="round" stroke-linejoin="round"/>
<path d="M82.0854 256.881H138.227" stroke="white" stroke-width="6" stroke-miterlimit="10" stroke-linecap="round" stroke-linejoin="round"/>
</g>
<rect x="485.627" y="104" width="192.605" height="379.081" rx="21" stroke="url(#paint1_linear)" stroke-width="6"/>
<g opacity="0.8">
<path d="M311.559 429.813L311.172 430.735L311.559 429.813ZM464.32 446.895L464.943 447.677L464.32 446.895ZM175.338 477.067C175.673 476.628 175.589 476.001 175.15 475.665C174.711 475.33 174.084 475.414 173.749 475.853L175.338 477.067ZM180.411 468.063C180.032 468.465 180.05 469.098 180.452 469.477C180.853 469.856 181.486 469.837 181.865 469.436L180.411 468.063ZM184.678 466.556C185.07 466.167 185.073 465.534 184.684 465.142C184.295 464.75 183.662 464.747 183.27 465.135L184.678 466.556ZM190.791 458.224C190.372 458.582 190.322 459.214 190.681 459.633C191.04 460.053 191.672 460.102 192.091 459.743L190.791 458.224ZM195.19 457.165C195.619 456.817 195.685 456.188 195.337 455.758C194.99 455.329 194.36 455.263 193.931 455.611L195.19 457.165ZM202.065 449.441C201.615 449.761 201.509 450.385 201.829 450.836C202.149 451.286 202.773 451.392 203.223 451.072L202.065 449.441ZM206.54 448.778C206.998 448.469 207.119 447.848 206.81 447.39C206.502 446.932 205.88 446.811 205.422 447.119L206.54 448.778ZM214.058 441.68C213.582 441.959 213.423 442.572 213.702 443.048C213.982 443.525 214.595 443.684 215.071 443.404L214.058 441.68ZM218.574 441.404C219.057 441.136 219.232 440.527 218.964 440.044C218.696 439.561 218.087 439.387 217.604 439.654L218.574 441.404ZM226.685 434.99C226.185 435.227 225.972 435.823 226.208 436.322C226.445 436.821 227.041 437.034 227.54 436.798L226.685 434.99ZM231.208 435.122C231.713 434.899 231.942 434.309 231.719 433.803C231.497 433.298 230.906 433.069 230.401 433.292L231.208 435.122ZM239.884 429.499C239.364 429.686 239.094 430.258 239.28 430.778C239.467 431.298 240.04 431.568 240.559 431.382L239.884 429.499ZM244.37 430.077C244.895 429.906 245.182 429.342 245.011 428.817C244.84 428.292 244.276 428.004 243.75 428.175L244.37 430.077ZM253.587 425.396C253.05 425.524 252.718 426.064 252.847 426.601C252.975 427.138 253.515 427.47 254.052 427.341L253.587 425.396ZM257.98 426.472C258.521 426.362 258.871 425.834 258.761 425.293C258.651 424.752 258.123 424.402 257.582 424.512L257.98 426.472ZM267.692 422.931C267.143 422.991 266.746 423.484 266.806 424.034C266.865 424.583 267.359 424.979 267.908 424.92L267.692 422.931ZM271.909 424.564C272.46 424.526 272.876 424.049 272.838 423.498C272.8 422.947 272.323 422.531 271.772 422.569L271.909 424.564ZM282.015 422.398C281.463 422.378 280.999 422.808 280.978 423.36C280.958 423.912 281.389 424.376 281.941 424.397L282.015 422.398ZM285.947 424.634C286.497 424.68 286.98 424.27 287.025 423.72C287.071 423.169 286.661 422.686 286.11 422.641L285.947 424.634ZM296.266 424.074C295.725 423.964 295.197 424.314 295.088 424.856C294.978 425.397 295.328 425.924 295.87 426.034L296.266 424.074ZM299.774 426.923C300.309 427.059 300.853 426.735 300.989 426.2C301.125 425.664 300.801 425.12 300.266 424.984L299.774 426.923ZM310.033 428.116C309.519 427.915 308.939 428.169 308.738 428.684C308.537 429.198 308.791 429.778 309.305 429.979L310.033 428.116ZM313.012 431.515C313.52 431.732 314.108 431.497 314.325 430.989C314.542 430.481 314.307 429.893 313.799 429.676L313.012 431.515ZM322.9 433.739C322.399 433.506 321.805 433.724 321.572 434.225C321.339 434.726 321.557 435.32 322.058 435.553L322.9 433.739ZM325.658 437.248C326.156 437.486 326.753 437.274 326.991 436.776C327.229 436.278 327.017 435.681 326.519 435.443L325.658 437.248ZM335.459 439.837C334.966 439.589 334.365 439.787 334.116 440.28C333.867 440.773 334.065 441.374 334.559 441.623L335.459 439.837ZM338.094 443.421C338.585 443.673 339.188 443.478 339.44 442.987C339.691 442.495 339.497 441.893 339.006 441.641L338.094 443.421ZM347.848 446.234C347.359 445.977 346.754 446.166 346.498 446.655C346.242 447.144 346.43 447.749 346.92 448.005L347.848 446.234ZM350.444 449.854C350.933 450.11 351.537 449.922 351.794 449.433C352.05 448.944 351.862 448.339 351.373 448.083L350.444 449.854ZM360.185 452.669C359.694 452.417 359.091 452.611 358.839 453.102C358.587 453.593 358.781 454.196 359.272 454.448L360.185 452.669ZM362.818 456.25C363.312 456.498 363.913 456.299 364.161 455.805C364.409 455.312 364.21 454.711 363.716 454.463L362.818 456.25ZM372.641 458.772C372.139 458.541 371.545 458.762 371.315 459.264C371.085 459.766 371.305 460.359 371.807 460.59L372.641 458.772ZM375.459 462.221C375.966 462.441 376.555 462.208 376.775 461.702C376.995 461.195 376.762 460.606 376.255 460.386L375.459 462.221ZM385.437 464.006C384.915 463.824 384.345 464.098 384.162 464.62C383.98 465.141 384.254 465.712 384.776 465.894L385.437 464.006ZM388.591 467.15C389.119 467.313 389.679 467.017 389.841 466.489C390.004 465.961 389.708 465.402 389.18 465.239L388.591 467.15ZM398.716 467.594C398.172 467.495 397.652 467.855 397.553 468.399C397.454 468.942 397.814 469.463 398.358 469.561L398.716 467.594ZM402.344 470.172C402.892 470.241 403.392 469.851 403.46 469.303C403.528 468.755 403.139 468.256 402.591 468.188L402.344 470.172ZM412.354 468.648C411.802 468.666 411.369 469.128 411.387 469.68C411.404 470.232 411.866 470.665 412.418 470.647L412.354 468.648ZM416.451 470.388C417 470.335 417.403 469.846 417.349 469.296C417.296 468.746 416.807 468.344 416.258 468.397L416.451 470.388ZM425.878 466.69C425.343 466.828 425.022 467.373 425.159 467.908C425.297 468.443 425.843 468.764 426.377 468.627L425.878 466.69ZM430.255 467.507C430.781 467.339 431.071 466.776 430.903 466.25C430.735 465.724 430.172 465.434 429.646 465.602L430.255 467.507ZM438.782 462.016C438.281 462.249 438.063 462.843 438.295 463.344C438.528 463.845 439.122 464.063 439.623 463.831L438.782 462.016ZM443.248 462.053C443.739 461.799 443.931 461.196 443.677 460.705C443.423 460.215 442.82 460.023 442.33 460.276L443.248 462.053ZM450.831 455.364C450.366 455.661 450.228 456.279 450.525 456.745C450.822 457.211 451.44 457.348 451.906 457.051L450.831 455.364ZM455.26 454.842C455.716 454.531 455.834 453.909 455.524 453.452C455.213 452.996 454.591 452.877 454.134 453.188L455.26 454.842ZM462.107 447.365C461.672 447.704 461.594 448.332 461.933 448.768C462.272 449.204 462.9 449.282 463.336 448.943L462.107 447.365ZM466.516 446.431C466.95 446.089 467.025 445.461 466.684 445.027C466.342 444.593 465.713 444.518 465.279 444.859L466.516 446.431ZM473.175 438.859C472.729 439.185 472.633 439.811 472.959 440.256C473.285 440.702 473.911 440.798 474.357 440.472L473.175 438.859ZM477.554 438.168C478.005 437.849 478.111 437.224 477.791 436.774C477.472 436.323 476.848 436.217 476.397 436.536L477.554 438.168ZM484.595 430.983C484.131 431.283 483.997 431.902 484.297 432.366C484.596 432.83 485.215 432.964 485.679 432.664L484.595 430.983ZM489.027 430.551C489.497 430.261 489.643 429.645 489.353 429.175C489.063 428.705 488.447 428.559 487.977 428.849L489.027 430.551ZM496.578 423.867C496.092 424.13 495.911 424.737 496.174 425.222C496.436 425.708 497.043 425.889 497.529 425.627L496.578 423.867ZM500.998 423.81C501.491 423.56 501.688 422.958 501.438 422.466C501.188 421.973 500.587 421.776 500.094 422.026L500.998 423.81ZM509.139 417.853C508.629 418.064 508.387 418.649 508.598 419.16C508.809 419.67 509.394 419.912 509.904 419.701L509.139 417.853ZM513.544 418.267C514.061 418.073 514.324 417.497 514.131 416.98C513.938 416.462 513.362 416.2 512.844 416.393L513.544 418.267ZM522.36 413.363C521.826 413.503 521.506 414.049 521.646 414.583C521.785 415.118 522.332 415.438 522.866 415.298L522.36 413.363ZM526.666 414.397C527.206 414.282 527.551 413.751 527.436 413.211C527.321 412.671 526.79 412.326 526.25 412.441L526.666 414.397ZM536.148 410.982C535.597 411.026 535.187 411.508 535.231 412.059C535.276 412.609 535.758 413.02 536.309 412.975L536.148 410.982ZM540.198 412.769C540.75 412.755 541.186 412.296 541.172 411.744C541.158 411.192 540.699 410.755 540.147 410.769L540.198 412.769ZM550.146 411.217C549.597 411.154 549.101 411.548 549.038 412.097C548.976 412.646 549.369 413.141 549.918 413.204L550.146 411.217ZM553.785 413.752C554.329 413.843 554.845 413.476 554.937 412.931C555.028 412.387 554.661 411.871 554.116 411.779L553.785 413.752ZM563.852 414.004C563.32 413.853 562.767 414.162 562.617 414.693C562.466 415.224 562.774 415.777 563.306 415.928L563.852 414.004ZM567.063 417.061C567.589 417.228 568.152 416.938 568.319 416.411C568.487 415.885 568.196 415.323 567.669 415.155L567.063 417.061ZM577.048 418.384C576.528 418.198 575.956 418.468 575.769 418.988C575.583 419.508 575.853 420.081 576.373 420.267L577.048 418.384ZM174.157 478.654C174.537 478.13 174.93 477.6 175.338 477.067L173.749 475.853C173.331 476.399 172.927 476.943 172.536 477.482L174.157 478.654ZM181.865 469.436C182.768 468.48 183.706 467.519 184.678 466.556L183.27 465.135C182.282 466.114 181.329 467.09 180.411 468.063L181.865 469.436ZM192.091 459.743C193.1 458.881 194.133 458.021 195.19 457.165L193.931 455.611C192.861 456.478 191.814 457.349 190.791 458.224L192.091 459.743ZM203.223 451.072C204.311 450.3 205.417 449.534 206.54 448.778L205.422 447.119C204.286 447.885 203.166 448.659 202.065 449.441L203.223 451.072ZM215.071 443.404C216.225 442.726 217.393 442.058 218.574 441.404L217.604 439.654C216.409 440.318 215.226 440.993 214.058 441.68L215.071 443.404ZM227.54 436.798C228.753 436.224 229.975 435.665 231.208 435.122L230.401 433.292C229.152 433.842 227.913 434.409 226.685 434.99L227.54 436.798ZM240.559 431.382C241.822 430.928 243.092 430.493 244.37 430.077L243.75 428.175C242.454 428.598 241.165 429.039 239.884 429.499L240.559 431.382ZM254.052 427.341C255.357 427.029 256.666 426.739 257.98 426.472L257.582 424.512C256.245 424.784 254.913 425.079 253.587 425.396L254.052 427.341ZM267.908 424.92C269.24 424.775 270.574 424.656 271.909 424.564L271.772 422.569C270.41 422.663 269.049 422.784 267.692 422.931L267.908 424.92ZM281.941 424.397C283.277 424.446 284.612 424.525 285.947 424.634L286.11 422.641C284.745 422.529 283.38 422.448 282.015 422.398L281.941 424.397ZM295.87 426.034C297.174 426.298 298.476 426.594 299.774 426.923L300.266 424.984C298.935 424.647 297.602 424.344 296.266 424.074L295.87 426.034ZM309.305 429.979C309.929 430.222 310.551 430.474 311.172 430.735L311.946 428.891C311.31 428.624 310.672 428.366 310.033 428.116L309.305 429.979ZM311.172 430.735C311.789 430.994 312.402 431.254 313.012 431.515L313.799 429.676C313.185 429.413 312.567 429.152 311.946 428.891L311.172 430.735ZM322.058 435.553C323.27 436.115 324.47 436.681 325.658 437.248L326.519 435.443C325.325 434.873 324.119 434.305 322.9 433.739L322.058 435.553ZM334.559 441.623C335.748 442.223 336.926 442.823 338.094 443.421L339.006 441.641C337.835 441.041 336.653 440.439 335.459 439.837L334.559 441.623ZM346.92 448.005C348.105 448.626 349.279 449.243 350.444 449.854L351.373 448.083C350.208 447.472 349.033 446.855 347.848 446.234L346.92 448.005ZM359.272 454.448C360.462 455.059 361.644 455.66 362.818 456.25L363.716 454.463C362.548 453.876 361.371 453.277 360.185 452.669L359.272 454.448ZM371.807 460.59C373.03 461.151 374.247 461.695 375.459 462.221L376.255 460.386C375.057 459.866 373.853 459.328 372.641 458.772L371.807 460.59ZM384.776 465.894C386.049 466.34 387.32 466.759 388.591 467.15L389.18 465.239C387.935 464.856 386.687 464.444 385.437 464.006L384.776 465.894ZM398.358 469.561C399.683 469.802 401.011 470.007 402.344 470.172L402.591 468.188C401.296 468.027 400.005 467.828 398.716 467.594L398.358 469.561ZM412.418 470.647C413.754 470.605 415.098 470.519 416.451 470.388L416.258 468.397C414.948 468.524 413.648 468.607 412.354 468.648L412.418 470.647ZM426.377 468.627C427.66 468.296 428.952 467.923 430.255 467.507L429.646 465.602C428.379 466.007 427.123 466.369 425.878 466.69L426.377 468.627ZM439.623 463.831C440.821 463.275 442.029 462.683 443.248 462.053L442.33 460.276C441.135 460.894 439.953 461.473 438.782 462.016L439.623 463.831ZM451.906 457.051C453.014 456.345 454.132 455.609 455.26 454.842L454.134 453.188C453.023 453.945 451.922 454.67 450.831 455.364L451.906 457.051ZM463.336 448.943C463.87 448.527 464.405 448.105 464.943 447.677L463.696 446.113C463.164 446.537 462.635 446.954 462.107 447.365L463.336 448.943ZM464.943 447.677C465.47 447.257 465.994 446.841 466.516 446.431L465.279 444.859C464.754 445.272 464.227 445.69 463.696 446.113L464.943 447.677ZM474.357 440.472C475.433 439.684 476.499 438.916 477.554 438.168L476.397 436.536C475.334 437.29 474.26 438.064 473.175 438.859L474.357 440.472ZM485.679 432.664C486.808 431.936 487.924 431.232 489.027 430.551L487.977 428.849C486.862 429.537 485.735 430.248 484.595 430.983L485.679 432.664ZM497.529 425.627C498.7 424.994 499.857 424.388 500.998 423.81L500.094 422.026C498.936 422.613 497.765 423.226 496.578 423.867L497.529 425.627ZM509.904 419.701C511.136 419.191 512.349 418.713 513.544 418.267L512.844 416.393C511.627 416.848 510.392 417.334 509.139 417.853L509.904 419.701ZM522.866 415.298C524.154 414.961 525.42 414.661 526.666 414.397L526.25 412.441C524.974 412.712 523.678 413.018 522.36 413.363L522.866 415.298ZM536.309 412.975C537.629 412.868 538.925 412.801 540.198 412.769L540.147 410.769C538.838 410.802 537.505 410.872 536.148 410.982L536.309 412.975ZM549.918 413.204C551.23 413.354 552.518 413.538 553.785 413.752L554.116 411.779C552.817 411.561 551.494 411.372 550.146 411.217L549.918 413.204ZM563.306 415.928C564.576 416.288 565.827 416.668 567.063 417.061L567.669 415.155C566.416 414.757 565.145 414.371 563.852 414.004L563.306 415.928ZM576.373 420.267C576.995 420.49 577.615 420.713 578.233 420.933L578.906 419.05C578.289 418.83 577.671 418.608 577.048 418.384L576.373 420.267Z" fill="url(#paint2_linear)"/>
<path d="M253.365 445.745L252.978 446.667L253.365 445.745ZM406.125 462.826L406.749 463.608L406.125 462.826ZM117.143 492.999C117.479 492.56 117.395 491.932 116.956 491.597C116.517 491.262 115.89 491.346 115.554 491.784L117.143 492.999ZM122.217 483.995C121.837 484.396 121.856 485.029 122.257 485.408C122.659 485.787 123.292 485.769 123.671 485.367L122.217 483.995ZM126.483 482.488C126.876 482.099 126.878 481.466 126.49 481.074C126.101 480.681 125.468 480.678 125.076 481.067L126.483 482.488ZM132.597 474.155C132.177 474.514 132.128 475.145 132.487 475.565C132.846 475.985 133.477 476.034 133.897 475.675L132.597 474.155ZM136.995 473.097C137.424 472.749 137.491 472.119 137.143 471.69C136.795 471.261 136.166 471.195 135.736 471.542L136.995 473.097ZM143.871 465.373C143.421 465.693 143.315 466.317 143.635 466.767C143.954 467.218 144.579 467.323 145.029 467.004L143.871 465.373ZM148.345 464.71C148.803 464.401 148.925 463.78 148.616 463.322C148.307 462.864 147.686 462.742 147.228 463.051L148.345 464.71ZM155.864 457.611C155.387 457.891 155.228 458.504 155.508 458.98C155.788 459.456 156.401 459.615 156.877 459.336L155.864 457.611ZM160.38 457.335C160.863 457.067 161.037 456.459 160.769 455.976C160.501 455.493 159.893 455.318 159.41 455.586L160.38 457.335ZM168.49 450.922C167.991 451.158 167.778 451.755 168.014 452.254C168.25 452.753 168.847 452.966 169.346 452.73L168.49 450.922ZM173.013 451.053C173.519 450.831 173.748 450.24 173.525 449.735C173.302 449.23 172.712 449.001 172.207 449.223L173.013 451.053ZM181.689 445.431C181.169 445.617 180.899 446.19 181.086 446.71C181.273 447.23 181.845 447.5 182.365 447.313L181.689 445.431ZM186.175 446.009C186.7 445.838 186.987 445.274 186.817 444.748C186.646 444.223 186.081 443.936 185.556 444.107L186.175 446.009ZM195.392 441.328C194.855 441.456 194.524 441.996 194.652 442.533C194.781 443.07 195.32 443.401 195.858 443.273L195.392 441.328ZM199.786 442.404C200.327 442.294 200.677 441.766 200.567 441.225C200.457 440.684 199.929 440.334 199.388 440.444L199.786 442.404ZM209.497 438.863C208.948 438.923 208.552 439.416 208.611 439.965C208.671 440.514 209.164 440.911 209.713 440.851L209.497 438.863ZM213.715 440.496C214.266 440.458 214.682 439.98 214.644 439.429C214.606 438.878 214.129 438.463 213.578 438.5L213.715 440.496ZM223.82 438.33C223.268 438.309 222.804 438.74 222.784 439.292C222.764 439.844 223.195 440.308 223.746 440.328L223.82 438.33ZM227.753 440.566C228.303 440.611 228.786 440.202 228.831 439.651C228.876 439.101 228.467 438.618 227.916 438.573L227.753 440.566ZM238.072 440.005C237.531 439.896 237.003 440.246 236.894 440.787C236.784 441.329 237.134 441.856 237.675 441.966L238.072 440.005ZM241.58 442.855C242.115 442.991 242.659 442.667 242.795 442.131C242.931 441.596 242.607 441.052 242.071 440.916L241.58 442.855ZM251.839 444.048C251.324 443.847 250.744 444.101 250.543 444.615C250.342 445.13 250.596 445.71 251.111 445.911L251.839 444.048ZM254.818 447.447C255.326 447.664 255.914 447.428 256.131 446.921C256.348 446.413 256.112 445.825 255.605 445.608L254.818 447.447ZM264.706 449.67C264.205 449.438 263.61 449.655 263.378 450.156C263.145 450.657 263.363 451.252 263.864 451.484L264.706 449.67ZM267.463 453.179C267.962 453.417 268.559 453.206 268.796 452.708C269.034 452.209 268.823 451.612 268.325 451.374L267.463 453.179ZM277.265 455.769C276.772 455.52 276.17 455.718 275.922 456.212C275.673 456.705 275.871 457.306 276.364 457.555L277.265 455.769ZM279.899 459.352C280.391 459.604 280.993 459.41 281.245 458.919C281.497 458.427 281.303 457.824 280.811 457.573L279.899 459.352ZM289.654 462.165C289.164 461.909 288.56 462.098 288.304 462.587C288.047 463.076 288.236 463.68 288.725 463.937L289.654 462.165ZM292.249 465.785C292.738 466.042 293.343 465.853 293.599 465.364C293.856 464.875 293.667 464.271 293.178 464.014L292.249 465.785ZM301.991 468.6C301.499 468.348 300.897 468.542 300.644 469.034C300.392 469.525 300.586 470.128 301.078 470.38L301.991 468.6ZM304.624 472.182C305.118 472.43 305.719 472.231 305.967 471.737C306.215 471.244 306.016 470.643 305.522 470.395L304.624 472.182ZM314.447 474.704C313.945 474.473 313.351 474.693 313.121 475.195C312.89 475.697 313.111 476.291 313.613 476.521L314.447 474.704ZM317.265 478.153C317.772 478.373 318.361 478.14 318.58 477.633C318.8 477.127 318.568 476.538 318.061 476.318L317.265 478.153ZM327.242 479.938C326.721 479.756 326.15 480.03 325.968 480.551C325.785 481.073 326.06 481.643 326.581 481.826L327.242 479.938ZM330.397 483.082C330.925 483.245 331.484 482.949 331.647 482.421C331.809 481.893 331.513 481.333 330.985 481.171L330.397 483.082ZM340.521 483.525C339.978 483.427 339.457 483.787 339.358 484.33C339.26 484.874 339.62 485.394 340.163 485.493L340.521 483.525ZM344.15 486.104C344.698 486.172 345.197 485.783 345.265 485.235C345.333 484.687 344.944 484.187 344.396 484.119L344.15 486.104ZM354.16 484.58C353.608 484.598 353.175 485.06 353.193 485.612C353.21 486.164 353.672 486.597 354.224 486.579L354.16 484.58ZM358.256 486.32C358.806 486.266 359.208 485.778 359.155 485.228C359.102 484.678 358.613 484.276 358.063 484.329L358.256 486.32ZM367.684 482.622C367.149 482.759 366.827 483.305 366.965 483.84C367.103 484.374 367.648 484.696 368.183 484.558L367.684 482.622ZM372.061 483.439C372.587 483.27 372.877 482.708 372.709 482.182C372.541 481.656 371.978 481.365 371.452 481.534L372.061 483.439ZM380.588 477.948C380.087 478.18 379.869 478.775 380.101 479.276C380.333 479.777 380.928 479.995 381.429 479.762L380.588 477.948ZM385.054 477.985C385.544 477.731 385.736 477.128 385.483 476.637C385.229 476.147 384.626 475.954 384.135 476.208L385.054 477.985ZM392.637 471.296C392.171 471.592 392.034 472.211 392.331 472.676C392.627 473.142 393.246 473.279 393.711 472.983L392.637 471.296ZM397.065 470.773C397.522 470.463 397.64 469.841 397.329 469.384C397.019 468.927 396.397 468.809 395.94 469.12L397.065 470.773ZM403.913 463.296C403.477 463.636 403.399 464.264 403.738 464.7C404.078 465.136 404.706 465.214 405.142 464.874L403.913 463.296ZM408.322 462.363C408.756 462.021 408.831 461.392 408.489 460.958C408.148 460.524 407.519 460.449 407.085 460.791L408.322 462.363ZM414.981 454.79C414.535 455.117 414.439 455.742 414.765 456.188C415.091 456.634 415.717 456.73 416.162 456.404L414.981 454.79ZM419.36 454.1C419.81 453.78 419.917 453.156 419.597 452.706C419.278 452.255 418.654 452.149 418.203 452.468L419.36 454.1ZM426.401 446.915C425.936 447.214 425.803 447.833 426.102 448.298C426.402 448.762 427.02 448.895 427.485 448.596L426.401 446.915ZM430.833 446.483C431.303 446.193 431.449 445.577 431.159 445.107C430.869 444.637 430.253 444.491 429.783 444.781L430.833 446.483ZM438.384 439.799C437.898 440.062 437.717 440.668 437.979 441.154C438.242 441.64 438.849 441.821 439.334 441.559L438.384 439.799ZM442.804 439.742C443.296 439.492 443.493 438.89 443.244 438.398C442.994 437.905 442.392 437.708 441.9 437.958L442.804 439.742ZM450.945 433.785C450.434 433.996 450.192 434.581 450.404 435.091C450.615 435.602 451.2 435.844 451.71 435.632L450.945 433.785ZM455.35 434.198C455.867 434.005 456.13 433.429 455.937 432.911C455.743 432.394 455.167 432.131 454.65 432.325L455.35 434.198ZM464.166 429.295C463.632 429.434 463.312 429.981 463.451 430.515C463.591 431.049 464.137 431.369 464.672 431.23L464.166 429.295ZM468.471 430.329C469.011 430.214 469.356 429.683 469.241 429.143C469.127 428.602 468.596 428.258 468.055 428.372L468.471 430.329ZM477.953 426.913C477.403 426.958 476.993 427.44 477.037 427.991C477.082 428.541 477.564 428.951 478.114 428.907L477.953 426.913ZM482.003 428.7C482.556 428.686 482.992 428.227 482.978 427.675C482.964 427.123 482.505 426.687 481.953 426.701L482.003 428.7ZM491.951 427.149C491.403 427.086 490.907 427.48 490.844 428.029C490.781 428.577 491.175 429.073 491.724 429.136L491.951 427.149ZM495.59 429.683C496.135 429.775 496.651 429.408 496.742 428.863C496.834 428.318 496.467 427.803 495.922 427.711L495.59 429.683ZM505.657 429.936C505.126 429.785 504.573 430.093 504.422 430.625C504.272 431.156 504.58 431.709 505.111 431.86L505.657 429.936ZM508.869 432.993C509.395 433.16 509.957 432.869 510.125 432.343C510.292 431.817 510.001 431.254 509.475 431.087L508.869 432.993ZM518.854 434.316C518.334 434.13 517.761 434.4 517.575 434.92C517.389 435.44 517.659 436.012 518.179 436.199L518.854 434.316ZM115.963 494.586C116.342 494.061 116.736 493.532 117.143 492.999L115.554 491.784C115.137 492.331 114.732 492.874 114.342 493.414L115.963 494.586ZM123.671 485.367C124.573 484.412 125.511 483.451 126.483 482.488L125.076 481.067C124.088 482.045 123.135 483.022 122.217 483.995L123.671 485.367ZM133.897 475.675C134.906 474.813 135.939 473.952 136.995 473.097L135.736 471.542C134.666 472.409 133.619 473.281 132.597 474.155L133.897 475.675ZM145.029 467.004C146.117 466.231 147.222 465.466 148.345 464.71L147.228 463.051C146.091 463.817 144.972 464.591 143.871 465.373L145.029 467.004ZM156.877 459.336C158.031 458.657 159.199 457.99 160.38 457.335L159.41 455.586C158.214 456.249 157.032 456.925 155.864 457.611L156.877 459.336ZM169.346 452.73C170.558 452.156 171.781 451.597 173.013 451.053L172.207 449.223C170.958 449.774 169.719 450.341 168.49 450.922L169.346 452.73ZM182.365 447.313C183.628 446.86 184.898 446.425 186.175 446.009L185.556 444.107C184.26 444.529 182.97 444.971 181.689 445.431L182.365 447.313ZM195.858 443.273C197.162 442.961 198.472 442.671 199.786 442.404L199.388 440.444C198.051 440.715 196.719 441.01 195.392 441.328L195.858 443.273ZM209.713 440.851C211.045 440.707 212.379 440.588 213.715 440.496L213.578 438.5C212.215 438.594 210.855 438.715 209.497 438.863L209.713 440.851ZM223.746 440.328C225.082 440.378 226.418 440.457 227.753 440.566L227.916 438.573C226.551 438.461 225.186 438.38 223.82 438.33L223.746 440.328ZM237.675 441.966C238.98 442.23 240.281 442.526 241.58 442.855L242.071 440.916C240.741 440.579 239.408 440.276 238.072 440.005L237.675 441.966ZM251.111 445.911C251.734 446.154 252.357 446.406 252.978 446.667L253.752 444.823C253.115 444.556 252.478 444.297 251.839 444.048L251.111 445.911ZM252.978 446.667C253.594 446.926 254.208 447.186 254.818 447.447L255.605 445.608C254.99 445.345 254.373 445.083 253.752 444.823L252.978 446.667ZM263.864 451.484C265.076 452.047 266.275 452.612 267.463 453.179L268.325 451.374C267.131 450.805 265.925 450.236 264.706 449.67L263.864 451.484ZM276.364 457.555C277.554 458.155 278.732 458.754 279.899 459.352L280.811 457.573C279.641 456.973 278.459 456.371 277.265 455.769L276.364 457.555ZM288.725 463.937C289.91 464.558 291.084 465.174 292.249 465.785L293.178 464.014C292.014 463.404 290.839 462.787 289.654 462.165L288.725 463.937ZM301.078 470.38C302.268 470.99 303.45 471.592 304.624 472.182L305.522 470.395C304.354 469.807 303.177 469.209 301.991 468.6L301.078 470.38ZM313.613 476.521C314.836 477.082 316.053 477.627 317.265 478.153L318.061 476.318C316.863 475.798 315.658 475.259 314.447 474.704L313.613 476.521ZM326.581 481.826C327.855 482.271 329.126 482.691 330.397 483.082L330.985 481.171C329.74 480.787 328.493 480.376 327.242 479.938L326.581 481.826ZM340.163 485.493C341.489 485.734 342.817 485.939 344.15 486.104L344.396 484.119C343.102 483.959 341.811 483.76 340.521 483.525L340.163 485.493ZM354.224 486.579C355.56 486.537 356.904 486.451 358.256 486.32L358.063 484.329C356.754 484.456 355.454 484.539 354.16 484.58L354.224 486.579ZM368.183 484.558C369.465 484.228 370.758 483.855 372.061 483.439L371.452 481.534C370.185 481.939 368.929 482.301 367.684 482.622L368.183 484.558ZM381.429 479.762C382.627 479.207 383.835 478.615 385.054 477.985L384.135 476.208C382.941 476.825 381.759 477.405 380.588 477.948L381.429 479.762ZM393.711 472.983C394.819 472.277 395.937 471.541 397.065 470.773L395.94 469.12C394.828 469.876 393.728 470.601 392.637 471.296L393.711 472.983ZM405.142 464.874C405.675 464.459 406.211 464.037 406.749 463.608L405.502 462.044C404.97 462.469 404.44 462.886 403.913 463.296L405.142 464.874ZM406.749 463.608C407.276 463.188 407.8 462.773 408.322 462.363L407.085 460.791C406.56 461.204 406.032 461.622 405.502 462.044L406.749 463.608ZM416.162 456.404C417.239 455.615 418.305 454.848 419.36 454.1L418.203 452.468C417.139 453.222 416.065 453.996 414.981 454.79L416.162 456.404ZM427.485 448.596C428.613 447.868 429.729 447.164 430.833 446.483L429.783 444.781C428.668 445.469 427.54 446.18 426.401 446.915L427.485 448.596ZM439.334 441.559C440.506 440.926 441.662 440.32 442.804 439.742L441.9 437.958C440.742 438.544 439.57 439.158 438.384 439.799L439.334 441.559ZM451.71 435.632C452.942 435.122 454.155 434.645 455.35 434.198L454.65 432.325C453.432 432.78 452.197 433.266 450.945 433.785L451.71 435.632ZM464.672 431.23C465.96 430.893 467.226 430.593 468.471 430.329L468.055 428.372C466.78 428.643 465.484 428.95 464.166 429.295L464.672 431.23ZM478.114 428.907C479.435 428.8 480.731 428.732 482.003 428.7L481.953 426.701C480.643 426.734 479.311 426.804 477.953 426.913L478.114 428.907ZM491.724 429.136C493.036 429.286 494.324 429.47 495.59 429.683L495.922 427.711C494.622 427.492 493.3 427.303 491.951 427.149L491.724 429.136ZM505.111 431.86C506.381 432.22 507.633 432.6 508.869 432.993L509.475 431.087C508.222 430.688 506.95 430.302 505.657 429.936L505.111 431.86ZM518.179 436.199C518.801 436.422 519.421 436.644 520.039 436.865L520.711 434.981C520.095 434.761 519.476 434.539 518.854 434.316L518.179 436.199Z" fill="url(#paint3_linear)"/>
<circle cx="581.33" cy="421.474" r="4.89906" fill="#753DDB"/>
<circle cx="523.135" cy="437.406" r="4.89906" fill="#753DDB"/>
</g>
<rect opacity="0.4" x="570.821" y="125.352" width="22.3777" height="5.26533" rx="2.63267" fill="#753DDB"/>
<g filter="url(#filter0_d)">
<rect x="611" y="175" width="130" height="48" rx="8" fill="#FF5F5F"/>
</g>
<path opacity="0.7" fill-rule="evenodd" clip-rule="evenodd" d="M635 187C628.373 187 623 192.373 623 199C623 205.627 628.373 211 635 211C641.627 211 647 205.627 647 199C647 192.373 641.627 187 635 187ZM640.201 196.971C640.297 196.861 640.37 196.734 640.416 196.596C640.462 196.458 640.479 196.312 640.468 196.167C640.457 196.022 640.416 195.881 640.349 195.751C640.283 195.622 640.191 195.508 640.079 195.415C639.967 195.321 639.838 195.252 639.699 195.209C639.56 195.167 639.413 195.153 639.269 195.167C639.124 195.182 638.984 195.226 638.856 195.296C638.729 195.366 638.616 195.461 638.526 195.575L633.835 201.203L631.408 198.774C631.202 198.575 630.926 198.466 630.64 198.468C630.354 198.47 630.081 198.585 629.878 198.787C629.676 198.99 629.561 199.263 629.559 199.549C629.556 199.835 629.666 200.111 629.865 200.317L633.138 203.589C633.245 203.697 633.373 203.78 633.515 203.835C633.656 203.89 633.807 203.914 633.958 203.908C634.11 203.901 634.258 203.862 634.394 203.795C634.53 203.728 634.65 203.633 634.747 203.516L640.201 196.971Z" fill="white"/>
<rect opacity="0.4" x="658.046" y="191.533" width="54.8772" height="4" rx="2" fill="white"/>
<rect opacity="0.4" x="658.046" y="202.782" width="31.2673" height="4" rx="2" fill="white"/>
<g filter="url(#filter1_d)">
<rect x="451" y="315" width="110.572" height="30" rx="8" fill="#753DDB"/>
</g>
<path opacity="0.7" fill-rule="evenodd" clip-rule="evenodd" d="M472.062 321C467.336 321 463.505 324.831 463.505 329.556C463.505 334.282 467.336 338.112 472.062 338.112C476.787 338.112 480.618 334.282 480.618 329.556C480.618 324.831 476.787 321 472.062 321ZM475.77 328.109C475.839 328.031 475.891 327.94 475.923 327.842C475.956 327.744 475.968 327.64 475.96 327.536C475.952 327.433 475.923 327.332 475.876 327.24C475.828 327.148 475.762 327.066 475.683 327C475.603 326.933 475.511 326.884 475.412 326.853C475.313 326.823 475.208 326.813 475.105 326.824C475.002 326.834 474.902 326.865 474.811 326.915C474.72 326.965 474.64 327.033 474.575 327.114L471.231 331.127L469.5 329.395C469.353 329.253 469.157 329.175 468.953 329.177C468.749 329.179 468.554 329.26 468.41 329.405C468.266 329.549 468.184 329.744 468.182 329.948C468.18 330.152 468.259 330.348 468.4 330.495L470.734 332.829C470.81 332.905 470.902 332.965 471.002 333.004C471.103 333.043 471.211 333.06 471.319 333.055C471.427 333.05 471.533 333.023 471.629 332.975C471.726 332.927 471.812 332.859 471.881 332.776L475.77 328.109Z" fill="white"/>
<rect opacity="0.4" x="487.199" y="328" width="32.9083" height="2.63267" rx="1.31633" fill="white"/>
<g clip-path="url(#clip0)">
<g opacity="0.8">
<g opacity="0.5">
<path opacity="0.5" d="M518.005 274.012V259.574C518.005 258.847 517.415 258.258 516.688 258.258C515.961 258.258 515.372 258.847 515.372 259.574V274.012C515.372 274.739 515.961 275.328 516.688 275.328C517.415 275.328 518.005 274.739 518.005 274.012Z" fill="#753DDB"/>
<path opacity="0.5" d="M524.049 271.891V261.716C524.049 260.989 523.459 260.399 522.732 260.399C522.005 260.399 521.416 260.989 521.416 261.716V271.891C521.416 272.618 522.005 273.208 522.732 273.208C523.459 273.208 524.049 272.618 524.049 271.891Z" fill="#753DDB"/>
<path opacity="0.5" d="M530.071 274.012V259.574C530.071 258.847 529.481 258.258 528.754 258.258C528.027 258.258 527.438 258.847 527.438 259.574V274.012C527.438 274.739 528.027 275.328 528.754 275.328C529.481 275.328 530.071 274.739 530.071 274.012Z" fill="#753DDB"/>
<path opacity="0.5" d="M536.115 281.368V251.72C536.115 250.993 535.525 250.404 534.798 250.404C534.071 250.404 533.482 250.993 533.482 251.72V281.368C533.482 282.095 534.071 282.684 534.798 282.684C535.525 282.684 536.115 282.095 536.115 281.368Z" fill="#753DDB"/>
<path opacity="0.5" d="M542.137 277.279V256.329C542.137 255.602 541.548 255.012 540.821 255.012C540.094 255.012 539.504 255.602 539.504 256.329V277.279C539.504 278.006 540.094 278.595 540.821 278.595C541.548 278.595 542.137 278.006 542.137 277.279Z" fill="#753DDB"/>
<path opacity="0.5" d="M596.663 281.368V251.72C596.663 250.993 596.074 250.404 595.347 250.404C594.62 250.404 594.031 250.993 594.031 251.72V281.368C594.031 282.095 594.62 282.684 595.347 282.684C596.074 282.684 596.663 282.095 596.663 281.368Z" fill="#753DDB"/>
<path opacity="0.5" d="M602.707 275.591V258.016C602.707 257.289 602.118 256.7 601.391 256.7C600.664 256.7 600.075 257.289 600.075 258.016V275.591C600.075 276.318 600.664 276.907 601.391 276.907C602.118 276.907 602.707 276.318 602.707 275.591Z" fill="#753DDB"/>
<path opacity="0.5" d="M608.315 270.204V263.403C608.315 262.676 607.725 262.087 606.998 262.087C606.271 262.087 605.682 262.676 605.682 263.403V270.204C605.682 270.931 606.271 271.52 606.998 271.52C607.725 271.52 608.315 270.931 608.315 270.204Z" fill="#753DDB"/>
<path opacity="0.5" d="M613.748 273.016V260.591C613.748 259.864 613.159 259.274 612.432 259.274C611.705 259.274 611.115 259.864 611.115 260.591V273.016C611.115 273.743 611.705 274.333 612.432 274.333C613.159 274.333 613.748 273.743 613.748 273.016Z" fill="#753DDB"/>
<path opacity="0.5" d="M619.29 280.935V252.651C619.29 251.924 618.701 251.334 617.974 251.334C617.247 251.334 616.658 251.924 616.658 252.651V280.935C616.658 281.662 617.247 282.251 617.974 282.251C618.701 282.251 619.29 281.662 619.29 280.935Z" fill="#753DDB"/>
<path opacity="0.5" d="M625.029 271.891V261.716C625.029 260.989 624.439 260.399 623.712 260.399C622.985 260.399 622.396 260.989 622.396 261.716V271.891C622.396 272.618 622.985 273.208 623.712 273.208C624.439 273.208 625.029 272.618 625.029 271.891Z" fill="#753DDB"/>
<path opacity="0.5" d="M630.963 275.591V258.016C630.963 257.289 630.374 256.7 629.647 256.7C628.92 256.7 628.331 257.289 628.331 258.016V275.591C628.331 276.318 628.92 276.907 629.647 276.907C630.374 276.907 630.963 276.318 630.963 275.591Z" fill="#753DDB"/>
<path opacity="0.5" d="M636.484 281.887V251.72C636.484 250.993 635.894 250.404 635.167 250.404C634.44 250.404 633.851 250.993 633.851 251.72V281.887C633.851 282.614 634.44 283.203 635.167 283.203C635.894 283.203 636.484 282.614 636.484 281.887Z" fill="#753DDB"/>
<path opacity="0.5" d="M641.895 274.596V258.016C641.895 257.289 641.306 256.7 640.579 256.7C639.852 256.7 639.262 257.289 639.262 258.016V274.596C639.262 275.323 639.852 275.912 640.579 275.912C641.306 275.912 641.895 275.323 641.895 274.596Z" fill="#753DDB"/>
<path opacity="0.5" d="M647.568 269.901V262.711C647.568 261.984 646.979 261.395 646.252 261.395C645.525 261.395 644.936 261.984 644.936 262.711V269.901C644.936 270.628 645.525 271.217 646.252 271.217C646.979 271.217 647.568 270.628 647.568 269.901Z" fill="#753DDB"/>
<path opacity="0.5" d="M653.045 267.867V264.702C653.045 263.975 652.455 263.385 651.728 263.385C651.001 263.385 650.412 263.975 650.412 264.702V267.867C650.412 268.594 651.001 269.184 651.728 269.184C652.455 269.184 653.045 268.594 653.045 267.867Z" fill="#753DDB"/>
<path opacity="0.5" d="M512.244 269.187V263.403C512.244 262.676 511.655 262.087 510.928 262.087C510.201 262.087 509.612 262.676 509.612 263.403V269.187C509.612 269.914 510.201 270.503 510.928 270.503C511.655 270.503 512.244 269.914 512.244 269.187Z" fill="#753DDB"/>
<path opacity="0.5" d="M571.964 281.368V251.72C571.964 250.993 571.375 250.404 570.648 250.404C569.921 250.404 569.332 250.993 569.332 251.72V281.368C569.332 282.095 569.921 282.684 570.648 282.684C571.375 282.684 571.964 282.095 571.964 281.368Z" fill="#753DDB"/>
<path opacity="0.5" d="M577.986 277.279V256.329C577.986 255.602 577.397 255.012 576.67 255.012C575.943 255.012 575.354 255.602 575.354 256.329V277.279C575.354 278.006 575.943 278.595 576.67 278.595C577.397 278.595 577.986 278.006 577.986 277.279Z" fill="#753DDB"/>
<path opacity="0.5" d="M548.181 271.891V261.716C548.181 260.989 547.592 260.399 546.865 260.399C546.138 260.399 545.548 260.989 545.548 261.716V271.891C545.548 272.618 546.138 273.208 546.865 273.208C547.592 273.208 548.181 272.618 548.181 271.891Z" fill="#753DDB"/>
<path opacity="0.5" d="M554.203 270.204V263.403C554.203 262.676 553.614 262.087 552.887 262.087C552.16 262.087 551.57 262.676 551.57 263.403V270.204C551.57 270.931 552.16 271.52 552.887 271.52C553.614 271.52 554.203 270.931 554.203 270.204Z" fill="#753DDB"/>
<path opacity="0.5" d="M584.532 271.891V261.716C584.532 260.989 583.943 260.399 583.216 260.399C582.489 260.399 581.899 260.989 581.899 261.716V271.891C581.899 272.618 582.489 273.208 583.216 273.208C583.943 273.208 584.532 272.618 584.532 271.891Z" fill="#753DDB"/>
<path opacity="0.5" d="M590.554 275.591V258.016C590.554 257.289 589.965 256.7 589.238 256.7C588.511 256.7 587.921 257.289 587.921 258.016V275.591C587.921 276.318 588.511 276.907 589.238 276.907C589.965 276.907 590.554 276.318 590.554 275.591Z" fill="#753DDB"/>
<path opacity="0.5" d="M560.247 273.016V260.591C560.247 259.864 559.658 259.274 558.931 259.274C558.204 259.274 557.614 259.864 557.614 260.591V273.016C557.614 273.743 558.204 274.333 558.931 274.333C559.658 274.333 560.247 273.743 560.247 273.016Z" fill="#753DDB"/>
<path opacity="0.5" d="M566.269 275.591V258.016C566.269 257.289 565.68 256.7 564.953 256.7C564.226 256.7 563.637 257.289 563.637 258.016V275.591C563.637 276.318 564.226 276.907 564.953 276.907C565.68 276.907 566.269 276.318 566.269 275.591Z" fill="#753DDB"/>
</g>
</g>
</g>
<circle cx="719.234" cy="334.765" r="4.06475" fill="#FF5F5F"/>
<circle cx="451.336" cy="208.02" r="3.03" fill="#753DDB"/>
<defs>
<filter id="filter0_d" x="591" y="165" width="170" height="88" filterUnits="userSpaceOnUse" color-interpolation-filters="sRGB">
<feFlood flood-opacity="0" result="BackgroundImageFix"/>
<feColorMatrix in="SourceAlpha" type="matrix" values="0 0 0 0 0 0 0 0 0 0 0 0 0 0 0 0 0 0 127 0" result="hardAlpha"/>
<feOffset dy="10"/>
<feGaussianBlur stdDeviation="10"/>
<feColorMatrix type="matrix" values="0 0 0 0 0.4795 0 0 0 0 0.468125 0 0 0 0 0.525 0 0 0 0.1 0"/>
<feBlend mode="normal" in2="BackgroundImageFix" result="effect1_dropShadow"/>
<feBlend mode="normal" in="SourceGraphic" in2="effect1_dropShadow" result="shape"/>
</filter>
<filter id="filter1_d" x="431" y="305" width="150.572" height="70" filterUnits="userSpaceOnUse" color-interpolation-filters="sRGB">
<feFlood flood-opacity="0" result="BackgroundImageFix"/>
<feColorMatrix in="SourceAlpha" type="matrix" values="0 0 0 0 0 0 0 0 0 0 0 0 0 0 0 0 0 0 127 0" result="hardAlpha"/>
<feOffset dy="10"/>
<feGaussianBlur stdDeviation="10"/>
<feColorMatrix type="matrix" values="0 0 0 0 0.4795 0 0 0 0 0.468125 0 0 0 0 0.525 0 0 0 0.1 0"/>
<feBlend mode="normal" in2="BackgroundImageFix" result="effect1_dropShadow"/>
<feBlend mode="normal" in="SourceGraphic" in2="effect1_dropShadow" result="shape"/>
</filter>
<linearGradient id="paint0_linear" x1="210.953" y1="3" x2="210.953" y2="378.205" gradientUnits="userSpaceOnUse">
<stop stop-color="#311B59"/>
<stop offset="0.875" stop-color="#753DDB" stop-opacity="0"/>
</linearGradient>
<linearGradient id="paint1_linear" x1="581.93" y1="101" x2="581.93" y2="432.637" gradientUnits="userSpaceOnUse">
<stop stop-color="#311B59"/>
<stop offset="0.947917" stop-color="#753DDB" stop-opacity="0"/>
</linearGradient>
<linearGradient id="paint2_linear" x1="375.958" y1="411.746" x2="375.958" y2="478.068" gradientUnits="userSpaceOnUse">
<stop stop-color="#753DDB"/>
<stop offset="0.817708" stop-color="#E54E73"/>
</linearGradient>
<linearGradient id="paint3_linear" x1="317.764" y1="427.678" x2="317.764" y2="494" gradientUnits="userSpaceOnUse">
<stop stop-color="#753DDB"/>
<stop offset="0.817708" stop-color="#E54E73"/>
</linearGradient>
<clipPath id="clip0">
<rect width="144.139" height="32.9083" fill="white" transform="translate(509.612 250.404)"/>
</clipPath>
</defs>
</svg>
