<svg width="201" height="43" viewBox="0 0 201 43" fill="none" xmlns="http://www.w3.org/2000/svg">
<path d="M11.4757 33.8655C8.86138 33.8655 6.69683 32.8114 4.98207 30.7031C3.2673 28.5666 2.40991 25.7836 2.40991 22.3541C2.40991 18.9246 3.00024 15.8042 4.1809 12.9931C5.36156 10.1539 7.04822 7.84883 9.24088 6.07784C11.4335 4.30685 13.7667 3.42136 16.2405 3.42136C18.7424 3.42136 20.7523 3.98358 22.2703 5.10802C23.8164 6.23245 24.5895 7.58178 24.5895 9.156C24.5895 10.7021 24.1256 12.0233 23.198 13.1196C22.2984 13.1196 21.2864 12.9229 20.162 12.5293C19.0375 12.1358 18.1942 11.6579 17.632 11.0957L18.4332 6.83684C17.7585 6.41518 16.873 6.20434 15.7767 6.20434C14.0619 6.20434 12.5439 7.68017 11.2227 10.6318C9.90148 13.5554 9.24088 17.1676 9.24088 21.4686C9.24088 24.3078 9.70471 26.374 10.6324 27.6671C11.5881 28.9321 12.7407 29.5646 14.09 29.5646C16.3108 29.5646 18.4472 28.5245 20.4993 26.4442L22.2281 28.0044C21.9189 28.4542 21.3567 29.0726 20.5415 29.8597C19.7263 30.6468 18.9251 31.3074 18.138 31.8415C17.3509 32.3475 16.353 32.8114 15.1442 33.233C13.9354 33.6547 12.7126 33.8655 11.4757 33.8655Z" fill="url(#paint0_linear)"/>
<path d="M31.8418 17.2941C31.8418 18.4748 31.4623 20.5128 30.7033 23.4083C29.9443 26.2756 29.5648 28.159 29.5648 29.0586C29.5648 29.93 29.6913 30.3657 29.9443 30.3657C30.1129 30.3657 30.7595 30.0987 31.8839 29.5646L32.3899 29.3116L33.1068 30.7874C32.8538 31.0123 32.5164 31.2934 32.0948 31.6307C31.6731 31.968 30.886 32.4319 29.7334 33.0222C28.5809 33.5844 27.5127 33.8655 26.5288 33.8655C25.5449 33.8655 24.7719 33.5704 24.2096 32.98C23.6474 32.3616 23.3663 31.5464 23.3663 30.5344C23.3663 29.4943 23.7177 27.6671 24.4205 25.0527C25.1232 22.4103 25.4746 20.6955 25.4746 19.9084C25.4746 18.7278 25.1092 17.6174 24.3783 16.5773L23.9988 16.0713L24.041 15.5231C25.5309 15.1015 27.9484 14.8906 31.2936 14.8906C31.659 15.3123 31.8418 16.1135 31.8418 17.2941ZM27.0348 10.2945C26.4726 9.73227 26.1915 8.98733 26.1915 8.05967C26.1915 7.13201 26.571 6.31679 27.33 5.61401C28.1171 4.91124 29.0166 4.55985 30.0286 4.55985C31.0406 4.55985 31.8277 4.84096 32.3899 5.40318C32.9521 5.9654 33.2333 6.71034 33.2333 7.638C33.2333 8.53755 32.8256 9.33872 32.0104 10.0415C31.2233 10.7443 30.3378 11.0957 29.3539 11.0957C28.3701 11.0957 27.597 10.8286 27.0348 10.2945Z" fill="url(#paint1_linear)"/>
<path d="M34.4755 33.486H33.6744C33.6744 32.1648 34.0679 29.6348 34.855 25.8961C35.6702 22.1573 36.0778 20.0349 36.0778 19.5289C36.0778 18.6013 35.6843 17.6174 34.8972 16.5773L34.5177 16.0713L34.5599 15.5231C36.0778 15.1015 38.5094 14.8906 41.8546 14.8906C42.2201 15.3685 42.4169 16.24 42.445 17.505C44.8906 15.6215 46.9568 14.6798 48.6434 14.6798C49.6554 14.6798 50.4566 15.0312 51.0469 15.734C51.6654 16.4367 51.9746 17.3222 51.9746 18.3904C51.9746 19.4306 51.6513 21.2437 51.0048 23.8299C50.3582 26.4161 50.0349 28.159 50.0349 29.0586C50.0349 29.93 50.1474 30.3657 50.3723 30.3657C50.5409 30.3657 51.1313 30.0987 52.1433 29.5646L52.6493 29.3116L53.4083 30.7874C53.1553 31.0123 52.8179 31.2934 52.3963 31.6307C51.9746 31.968 51.1875 32.4319 50.0349 33.0222C48.9105 33.5844 47.8985 33.8655 46.999 33.8655C44.9469 33.8655 43.9208 32.6989 43.9208 30.3657C43.9208 29.3818 44.23 27.5687 44.8485 24.9262C45.495 22.2838 45.8183 20.5831 45.8183 19.8241C45.8183 19.0651 45.5793 18.6856 45.1015 18.6856C44.2862 18.6856 43.2883 19.037 42.1076 19.7398C42.0233 20.2177 41.7422 21.4827 41.2643 23.5348C40.2804 27.9482 39.7885 31.0685 39.7885 32.8957C38.8046 33.2893 37.0336 33.486 34.4755 33.486Z" fill="url(#paint2_linear)"/>
<path d="M73.4716 30.7874C71.0821 32.8395 68.9738 33.8655 67.1466 33.8655C65.3475 33.8655 64.3074 32.966 64.0263 31.1669C63.183 32.0102 62.2412 32.6708 61.2011 33.1487C60.161 33.6266 59.2474 33.8655 58.4603 33.8655C57.111 33.8655 55.9584 33.2752 55.0027 32.0945C54.0469 30.9139 53.569 29.0867 53.569 26.6129C53.569 22.9023 54.3561 19.9928 55.9303 17.8845C57.5046 15.748 59.2755 14.6798 61.2433 14.6798C63.2392 14.6798 64.9118 15.1296 66.2611 16.0291C67.1326 11.4752 67.5683 7.891 67.5683 5.27668L67.3574 3.50569C69.4658 2.77481 71.5319 2.40936 73.5559 2.40936C73.7808 2.88725 73.8932 3.43541 73.8932 4.05385C73.8932 6.10595 73.2748 10.2804 72.0379 16.5773C70.801 22.846 70.1826 27.1049 70.1826 29.3537C70.1826 30.0284 70.3372 30.3657 70.6464 30.3657C70.8151 30.3657 71.3492 30.0987 72.2487 29.5646L72.6704 29.3116L73.4716 30.7874ZM63.3095 17.1676C62.3256 17.1676 61.4682 18.1375 60.7373 20.0771C60.0345 22.0168 59.6831 23.9424 59.6831 25.8539C59.6831 27.7373 59.8096 28.9461 60.0626 29.4802C60.3438 30.0143 60.7514 30.2814 61.2855 30.2814C62.2131 30.2814 63.1267 29.9019 64.0263 29.1429C64.1106 28.0185 64.7431 24.2797 65.9238 17.9266C64.968 17.4206 64.0966 17.1676 63.3095 17.1676Z" fill="url(#paint3_linear)"/>
<path d="M79.1199 37.9135C78.1922 38.4757 77.7284 39.0239 77.7284 39.558C77.7284 40.0921 78.0236 40.3592 78.6139 40.3592C79.2323 40.3592 79.9211 40.064 80.6801 39.4737C81.4391 38.9115 82.0716 37.9838 82.5776 36.6907C81.2282 36.9437 80.0757 37.3513 79.1199 37.9135ZM77.0959 33.5282C74.7346 33.5282 73.5539 32.2351 73.5539 29.6489C73.5539 29.0305 73.835 27.2454 74.3973 24.2938C74.9595 21.3421 75.2406 18.8824 75.2406 16.9146C75.2406 16.493 75.1844 16.0994 75.0719 15.734C76.5899 15.1436 78.6701 14.8485 81.3126 14.8485C81.4531 15.242 81.5234 15.9167 81.5234 16.8725C81.5234 17.8282 81.2142 19.8101 80.5957 22.8179C79.9773 25.8258 79.6681 27.7655 79.6681 28.6369C79.6681 29.5083 80.0335 29.9441 80.7644 29.9441C81.6358 29.9441 82.69 29.5083 83.9269 28.6369C84.0674 26.9783 84.6297 22.6071 85.6135 15.5231C86.5974 15.1296 88.3684 14.9328 90.9265 14.9328H91.7277C91.1936 17.0411 90.6735 20.0771 90.1675 24.0408C89.6615 28.0044 89.2539 30.7593 88.9447 32.3054C88.3544 35.3976 87.258 37.9135 85.6557 39.8532C84.0815 41.8209 82.0153 42.8048 79.4572 42.8048C78.4452 42.8048 77.5176 42.5378 76.6742 42.0037C75.859 41.4696 75.4514 40.7808 75.4514 39.9375C75.4514 38.8131 76.1401 37.787 77.5176 36.8594C78.895 35.9317 80.7503 35.2149 83.0835 34.7089C83.3365 33.472 83.5333 32.2773 83.6739 31.1247C81.3969 32.727 79.2042 33.5282 77.0959 33.5282Z" fill="url(#paint4_linear)"/>
<path d="M118.386 33.8655C117.29 33.8655 116.391 33.5142 115.688 32.8114C114.985 32.0805 114.634 31.1107 114.634 29.9019C114.634 28.665 115.252 25.1933 116.489 19.4868C115.758 19.3181 114.577 19.2338 112.947 19.2338C111.317 19.2338 109.756 19.3743 108.266 19.6554C106.833 26.121 106.074 30.4501 105.989 32.6427C104.977 33.2049 102.841 33.486 99.5802 33.486H99.1585C99.2429 32.2492 99.9878 28.5526 101.393 22.3963C102.827 16.24 103.712 11.6157 104.05 8.5235C104.05 8.07372 103.909 7.53961 103.628 6.92117C103.347 6.27462 103.066 5.75457 102.785 5.36101L102.321 4.77068L102.448 4.13819C104.106 3.6603 106.734 3.42136 110.333 3.42136C110.67 3.98358 110.839 4.89718 110.839 6.16218C110.839 7.42717 110.206 10.9129 108.941 16.6195H117.079C118.063 11.6157 118.569 8.04561 118.597 5.90918C118.597 5.43129 118.569 5.03774 118.513 4.72852C120.762 3.85708 123.025 3.42136 125.302 3.42136C125.386 3.59002 125.428 4.01169 125.428 4.68635C125.428 6.23246 124.74 10.2102 123.362 16.6195C122.013 23.0288 121.338 27.1049 121.338 28.8477C121.338 29.6067 121.465 29.9862 121.718 29.9862C121.971 29.9862 122.828 29.6208 124.29 28.8899L125.049 30.4501C122.547 32.727 120.326 33.8655 118.386 33.8655Z" fill="url(#paint5_linear)"/>
<path d="M138.57 15.9026C138.626 15.8464 138.781 15.481 139.034 14.8063C140.355 14.8063 142.126 15.1999 144.347 15.987C143.644 18.3202 143.082 20.7658 142.66 23.3239C142.238 25.8539 142.028 27.6671 142.028 28.7634C142.028 29.8316 142.14 30.3657 142.365 30.3657C142.534 30.3657 143.152 30.0987 144.22 29.5646L144.726 29.3116L145.485 30.7874C145.232 31.0123 144.895 31.2934 144.473 31.6307C144.08 31.968 143.321 32.4319 142.196 33.0222C141.072 33.5844 140.06 33.8655 139.16 33.8655C137.417 33.8655 136.405 33.0784 136.124 31.5042C134.325 33.0784 132.695 33.8655 131.233 33.8655C129.799 33.8655 128.577 33.3033 127.565 32.1789C126.581 31.0544 126.089 29.2834 126.089 26.8659C126.089 23.099 126.862 20.1333 128.408 17.9688C129.954 15.7761 131.823 14.6798 134.016 14.6798C135.59 14.6798 137.108 15.0874 138.57 15.9026ZM133.763 30.2814C134.438 30.2814 135.197 30.0143 136.04 29.4802C136.237 25.5166 136.897 21.5951 138.022 17.7158C137.178 17.3503 136.462 17.1676 135.871 17.1676C134.859 17.1676 133.988 18.1656 133.257 20.1614C132.554 22.1292 132.203 24.3078 132.203 26.6972C132.203 29.0867 132.723 30.2814 133.763 30.2814Z" fill="url(#paint6_linear)"/>
<path d="M146.138 33.486H145.336C145.336 32.1648 145.73 29.6348 146.517 25.8961C147.332 22.1573 147.74 20.0349 147.74 19.5289C147.74 18.6013 147.346 17.6174 146.559 16.5773L146.18 16.0713L146.222 15.5231C147.74 15.1015 150.171 14.8906 153.517 14.8906C153.882 15.3685 154.079 16.24 154.107 17.505C156.553 15.6215 158.619 14.6798 160.305 14.6798C161.317 14.6798 162.119 15.0312 162.709 15.734C163.327 16.4367 163.637 17.3222 163.637 18.3904C163.637 19.4306 163.313 21.2437 162.667 23.8299C162.02 26.4161 161.697 28.159 161.697 29.0586C161.697 29.93 161.809 30.3657 162.034 30.3657C162.203 30.3657 162.793 30.0987 163.805 29.5646L164.311 29.3116L165.07 30.7874C164.817 31.0123 164.48 31.2934 164.058 31.6307C163.637 31.968 162.85 32.4319 161.697 33.0222C160.573 33.5844 159.561 33.8655 158.661 33.8655C156.609 33.8655 155.583 32.6989 155.583 30.3657C155.583 29.3818 155.892 27.5687 156.51 24.9262C157.157 22.2838 157.48 20.5831 157.48 19.8241C157.48 19.0651 157.241 18.6856 156.763 18.6856C155.948 18.6856 154.95 19.037 153.77 19.7398C153.685 20.2177 153.404 21.4827 152.926 23.5348C151.942 27.9482 151.451 31.0685 151.451 32.8957C150.467 33.2893 148.696 33.486 146.138 33.486Z" fill="url(#paint7_linear)"/>
<path d="M177.712 15.9026C177.769 15.8464 177.923 15.481 178.176 14.8063C179.497 14.8063 181.268 15.1999 183.489 15.987C182.786 18.3202 182.224 20.7658 181.802 23.3239C181.381 25.8539 181.17 27.6671 181.17 28.7634C181.17 29.8316 181.282 30.3657 181.507 30.3657C181.676 30.3657 182.294 30.0987 183.363 29.5646L183.869 29.3116L184.628 30.7874C184.375 31.0123 184.037 31.2934 183.616 31.6307C183.222 31.968 182.463 32.4319 181.339 33.0222C180.214 33.5844 179.202 33.8655 178.303 33.8655C176.56 33.8655 175.548 33.0784 175.267 31.5042C173.468 33.0784 171.837 33.8655 170.375 33.8655C168.942 33.8655 167.719 33.3033 166.707 32.1789C165.723 31.0544 165.231 29.2834 165.231 26.8659C165.231 23.099 166.004 20.1333 167.55 17.9688C169.096 15.7761 170.966 14.6798 173.158 14.6798C174.733 14.6798 176.251 15.0874 177.712 15.9026ZM172.905 30.2814C173.58 30.2814 174.339 30.0143 175.182 29.4802C175.379 25.5166 176.04 21.5951 177.164 17.7158C176.321 17.3503 175.604 17.1676 175.014 17.1676C174.002 17.1676 173.13 18.1656 172.399 20.1614C171.697 22.1292 171.345 24.3078 171.345 26.6972C171.345 29.0867 171.865 30.2814 172.905 30.2814Z" fill="url(#paint8_linear)"/>
<path d="M183.973 26.0647C183.973 22.5509 185.027 19.7819 187.135 17.758C189.272 15.7059 191.689 14.6798 194.388 14.6798C196.046 14.6798 197.41 15.0874 198.478 15.9026C199.546 16.7178 200.08 17.8142 200.08 19.1916C200.08 20.5409 199.729 21.6794 199.026 22.6071C198.351 23.5348 197.522 24.2516 196.538 24.7576C194.542 25.7415 192.715 26.3599 191.057 26.6129L190.045 26.7394C190.241 29.3818 191.324 30.7031 193.291 30.7031C193.966 30.7031 194.683 30.5344 195.442 30.1971C196.201 29.8597 196.791 29.5224 197.213 29.1851L197.845 28.6791L198.857 30.0284C198.633 30.3376 198.183 30.7452 197.508 31.2512C196.833 31.7572 196.201 32.1789 195.611 32.5162C193.98 33.4158 192.195 33.8655 190.256 33.8655C188.316 33.8655 186.784 33.1768 185.659 31.7994C184.535 30.4219 183.973 28.5104 183.973 26.0647ZM190.003 24.6732C191.436 24.4202 192.575 23.8159 193.418 22.8601C194.261 21.9043 194.683 20.6674 194.683 19.1494C194.683 17.6315 194.233 16.8725 193.334 16.8725C192.265 16.8725 191.436 17.7861 190.846 19.6133C190.284 21.4124 190.003 23.099 190.003 24.6732Z" fill="url(#paint9_linear)"/>
<path d="M9.06551 31.4552C6.45127 31.4552 4.28679 30.4011 2.57208 28.2928C0.857359 26.1565 0 23.3736 0 19.9441C0 16.5147 0.590313 13.3945 1.77094 10.5835C2.95156 7.74434 4.63817 5.43931 6.83076 3.66837C9.02335 1.89743 11.3565 1.01196 13.8302 1.01196C16.332 1.01196 18.3419 1.57417 19.8598 2.69857C21.4059 3.82297 22.1789 5.17226 22.1789 6.74643C22.1789 8.29248 21.7151 9.61366 20.7874 10.71C19.8879 10.71 18.8759 10.5132 17.7515 10.1196C16.6271 9.7261 15.7838 9.24823 15.2216 8.68603L16.0228 4.42734C15.3481 4.00569 14.4627 3.79486 13.3664 3.79486C11.6516 3.79486 10.1337 5.27065 8.81252 8.22221C7.49135 11.1457 6.83076 14.7578 6.83076 19.0587C6.83076 21.8978 7.29458 23.9639 8.22221 25.2569C9.17796 26.5219 10.3305 27.1544 11.6798 27.1544C13.9005 27.1544 16.0368 26.1143 18.0889 24.0341L19.8176 25.5943C19.5084 26.044 18.9462 26.6624 18.131 27.4495C17.3158 28.2366 16.5147 28.8972 15.7276 29.4313C14.9405 29.9373 13.9426 30.4011 12.7339 30.8227C11.5252 31.2444 10.3024 31.4552 9.06551 31.4552Z" fill="white"/>
<path d="M29.431 14.8843C29.431 16.0649 29.0515 18.1029 28.2925 20.9983C27.5335 23.8655 27.1541 25.7489 27.1541 26.6484C27.1541 27.5198 27.2805 27.9555 27.5335 27.9555C27.7022 27.9555 28.3487 27.6885 29.4731 27.1544L29.9791 26.9014L30.6959 28.3772C30.4429 28.602 30.1056 28.8831 29.684 29.2205C29.2623 29.5578 28.4752 30.0216 27.3227 30.6119C26.1702 31.1741 25.102 31.4552 24.1182 31.4552C23.1343 31.4552 22.3613 31.1601 21.7991 30.5697C21.2369 29.9513 20.9558 29.1361 20.9558 28.1242C20.9558 27.0841 21.3071 25.2569 22.0099 22.6427C22.7127 20.0003 23.064 18.2856 23.064 17.4985C23.064 16.3179 22.6986 15.2076 21.9677 14.1675L21.5882 13.6615L21.6304 13.1134C23.1202 12.6917 25.5377 12.4809 28.8828 12.4809C29.2483 12.9025 29.431 13.7037 29.431 14.8843ZM24.6241 7.88489C24.0619 7.32268 23.7808 6.57777 23.7808 5.65013C23.7808 4.7225 24.1603 3.90731 24.9193 3.20455C25.7064 2.5018 26.6059 2.15042 27.6179 2.15042C28.6298 2.15042 29.4169 2.43152 29.9791 2.99373C30.5413 3.55593 30.8224 4.30085 30.8224 5.22848C30.8224 6.12801 30.4148 6.92914 29.5996 7.6319C28.8125 8.33465 27.9271 8.68603 26.9432 8.68603C25.9594 8.68603 25.1863 8.41898 24.6241 7.88489Z" fill="white"/>
<path d="M32.0646 31.0757H31.2635C31.2635 29.7546 31.657 27.2246 32.4441 23.486C33.2593 19.7474 33.6669 17.625 33.6669 17.1191C33.6669 16.1914 33.2734 15.2076 32.4863 14.1675L32.1068 13.6615L32.149 13.1134C33.6669 12.6917 36.0984 12.4809 39.4436 12.4809C39.809 12.9588 40.0058 13.8302 40.0339 15.0951C42.4794 13.2118 44.5455 12.2701 46.2321 12.2701C47.2441 12.2701 48.0453 12.6214 48.6356 13.3242C49.254 14.0269 49.5632 14.9124 49.5632 15.9806C49.5632 17.0207 49.2399 18.8338 48.5934 21.4199C47.9469 24.006 47.6236 25.7489 47.6236 26.6484C47.6236 27.5198 47.736 27.9555 47.9609 27.9555C48.1296 27.9555 48.7199 27.6885 49.7319 27.1544L50.2378 26.9014L50.9968 28.3772C50.7438 28.602 50.4065 28.8831 49.9848 29.2205C49.5632 29.5578 48.7761 30.0216 47.6236 30.6119C46.4992 31.1741 45.4872 31.4552 44.5877 31.4552C42.5357 31.4552 41.5096 30.2886 41.5096 27.9555C41.5096 26.9717 41.8189 25.1586 42.4373 22.5162C43.0838 19.8738 43.4071 18.1732 43.4071 17.4142C43.4071 16.6552 43.1681 16.2758 42.6903 16.2758C41.8751 16.2758 40.8772 16.6271 39.6965 17.3299C39.6122 17.8078 39.3311 19.0727 38.8532 21.1247C37.8694 25.538 37.3775 28.6583 37.3775 30.4854C36.3936 30.879 34.6227 31.0757 32.0646 31.0757Z" fill="white"/>
<path d="M71.0595 28.3772C68.6702 30.4292 66.5619 31.4552 64.7348 31.4552C62.9357 31.4552 61.8956 30.5557 61.6145 28.7566C60.7712 29.5999 59.8295 30.2605 58.7895 30.7384C57.7494 31.2163 56.8358 31.4552 56.0487 31.4552C54.6994 31.4552 53.5469 30.8649 52.5912 29.6843C51.6354 28.5037 51.1576 26.6765 51.1576 24.2028C51.1576 20.4923 51.9447 17.5829 53.5188 15.4746C55.093 13.3382 56.8639 12.2701 58.8316 12.2701C60.8274 12.2701 62.5 12.7198 63.8493 13.6193C64.7207 9.06551 65.1564 5.48147 65.1564 2.86723L64.9456 1.0963C67.0538 0.365432 69.1199 0 71.1439 0C71.3687 0.477872 71.4812 1.02602 71.4812 1.64444C71.4812 3.69648 70.8628 7.87083 69.6259 14.1675C68.3891 20.4361 67.7707 24.6947 67.7707 26.9435C67.7707 27.6182 67.9253 27.9555 68.2345 27.9555C68.4031 27.9555 68.9372 27.6885 69.8367 27.1544L70.2584 26.9014L71.0595 28.3772ZM60.8977 14.7578C59.9139 14.7578 59.0565 15.7276 58.3256 17.6672C57.6229 19.6068 57.2715 21.5323 57.2715 23.4438C57.2715 25.3272 57.398 26.5359 57.651 27.07C57.9321 27.6041 58.3397 27.8712 58.8738 27.8712C59.8014 27.8712 60.715 27.4917 61.6145 26.7327C61.6989 25.6083 62.3313 21.8697 63.512 15.5168C62.5562 15.0108 61.6848 14.7578 60.8977 14.7578Z" fill="white"/>
<path d="M76.7077 35.5031C75.7801 36.0653 75.3162 36.6134 75.3162 37.1475C75.3162 37.6816 75.6114 37.9487 76.2017 37.9487C76.8201 37.9487 77.5088 37.6535 78.2678 37.0632C79.0268 36.501 79.6593 35.5733 80.1652 34.2803C78.8159 34.5333 77.6634 34.9409 76.7077 35.5031ZM74.6838 31.1179C72.3225 31.1179 71.1419 29.8248 71.1419 27.2387C71.1419 26.6203 71.423 24.8353 71.9852 21.8837C72.5474 18.9322 72.8285 16.4725 72.8285 14.5048C72.8285 14.0832 72.7723 13.6896 72.6598 13.3242C74.1778 12.7339 76.2579 12.4387 78.9003 12.4387C79.0408 12.8323 79.1111 13.5069 79.1111 14.4627C79.1111 15.4184 78.8019 17.4002 78.1835 20.4079C77.5651 23.4157 77.2558 25.3553 77.2558 26.2267C77.2558 27.0981 77.6213 27.5339 78.3521 27.5339C79.2235 27.5339 80.2777 27.0981 81.5145 26.2267C81.6551 24.5682 82.2173 20.1971 83.2011 13.1134C84.185 12.7198 85.9559 12.5231 88.5139 12.5231H89.3151C88.781 14.6313 88.261 17.6672 87.755 21.6307C87.249 25.5943 86.8414 28.349 86.5322 29.8951C85.9419 32.9872 84.8456 35.5031 83.2433 37.4427C81.6691 39.4104 79.603 40.3942 77.045 40.3942C76.0331 40.3942 75.1054 40.1272 74.2621 39.5931C73.4469 39.059 73.0393 38.3703 73.0393 37.527C73.0393 36.4026 73.728 35.3766 75.1054 34.4489C76.4828 33.5213 78.3381 32.8045 80.6712 32.2985C80.9242 31.0617 81.121 29.867 81.2615 28.7145C78.9846 30.3168 76.792 31.1179 74.6838 31.1179Z" fill="white"/>
<path d="M115.973 31.4552C114.877 31.4552 113.977 31.1038 113.274 30.4011C112.572 29.6702 112.22 28.7004 112.22 27.4917C112.22 26.2548 112.839 22.7832 114.076 17.0769C113.345 16.9082 112.164 16.8239 110.534 16.8239C108.903 16.8239 107.343 16.9645 105.853 17.2456C104.42 23.7109 103.661 28.0398 103.576 30.2324C102.565 30.7946 100.428 31.0757 97.1674 31.0757H96.7457C96.83 29.8389 97.575 26.1424 98.9805 19.9863C100.414 13.8302 101.3 9.20606 101.637 6.11395C101.637 5.66419 101.496 5.1301 101.215 4.51167C100.934 3.86514 100.653 3.3451 100.372 2.95156L99.9081 2.36125L100.035 1.72877C101.693 1.2509 104.321 1.01196 107.919 1.01196C108.257 1.57417 108.425 2.48774 108.425 3.7527C108.425 5.01765 107.793 8.50331 106.528 14.2097H114.666C115.65 9.20606 116.156 5.63608 116.184 3.49971C116.184 3.02184 116.156 2.62829 116.1 2.31908C118.348 1.44767 120.611 1.01196 122.888 1.01196C122.972 1.18062 123.015 1.60228 123.015 2.27692C123.015 3.82298 122.326 7.80056 120.949 14.2097C119.599 20.6188 118.925 24.6947 118.925 26.4376C118.925 27.1965 119.051 27.576 119.304 27.576C119.557 27.576 120.414 27.2106 121.876 26.4797L122.635 28.0398C120.133 30.3168 117.913 31.4552 115.973 31.4552Z" fill="white"/>
<path d="M136.156 13.4929C136.212 13.4366 136.367 13.0712 136.62 12.3966C137.941 12.3966 139.712 12.7901 141.933 13.5772C141.23 15.9103 140.668 18.3559 140.246 20.9139C139.824 23.4438 139.614 25.2569 139.614 26.3532C139.614 27.4214 139.726 27.9555 139.951 27.9555C140.12 27.9555 140.738 27.6885 141.806 27.1544L142.312 26.9014L143.071 28.3772C142.818 28.602 142.481 28.8831 142.059 29.2205C141.666 29.5578 140.907 30.0216 139.782 30.6119C138.658 31.1741 137.646 31.4552 136.746 31.4552C135.003 31.4552 133.992 30.6681 133.71 29.094C131.911 30.6681 130.281 31.4552 128.819 31.4552C127.386 31.4552 126.163 30.893 125.151 29.7686C124.167 28.6442 123.675 26.8733 123.675 24.4558C123.675 20.689 124.448 17.7234 125.994 15.5589C127.54 13.3664 129.41 12.2701 131.602 12.2701C133.176 12.2701 134.694 12.6777 136.156 13.4929ZM131.349 27.8712C132.024 27.8712 132.783 27.6041 133.626 27.07C133.823 23.1065 134.483 19.1852 135.608 15.306C134.765 14.9405 134.048 14.7578 133.457 14.7578C132.445 14.7578 131.574 15.7557 130.843 17.7515C130.14 19.7192 129.789 21.8978 129.789 24.2871C129.789 26.6765 130.309 27.8712 131.349 27.8712Z" fill="white"/>
<path d="M143.723 31.0757H142.922C142.922 29.7546 143.316 27.2246 144.103 23.486C144.918 19.7474 145.326 17.625 145.326 17.1191C145.326 16.1914 144.932 15.2076 144.145 14.1675L143.765 13.6615L143.808 13.1134C145.326 12.6917 147.757 12.4809 151.102 12.4809C151.468 12.9588 151.664 13.8302 151.693 15.0951C154.138 13.2118 156.204 12.2701 157.891 12.2701C158.903 12.2701 159.704 12.6214 160.294 13.3242C160.913 14.0269 161.222 14.9124 161.222 15.9806C161.222 17.0207 160.899 18.8338 160.252 21.4199C159.606 24.006 159.282 25.7489 159.282 26.6484C159.282 27.5198 159.395 27.9555 159.62 27.9555C159.788 27.9555 160.379 27.6885 161.391 27.1544L161.897 26.9014L162.655 28.3772C162.402 28.602 162.065 28.8831 161.644 29.2205C161.222 29.5578 160.435 30.0216 159.282 30.6119C158.158 31.1741 157.146 31.4552 156.246 31.4552C154.194 31.4552 153.168 30.2886 153.168 27.9555C153.168 26.9717 153.478 25.1586 154.096 22.5162C154.742 19.8738 155.066 18.1732 155.066 17.4142C155.066 16.6552 154.827 16.2758 154.349 16.2758C153.534 16.2758 152.536 16.6271 151.355 17.3299C151.271 17.8078 150.99 19.0727 150.512 21.1247C149.528 25.538 149.036 28.6583 149.036 30.4854C148.052 30.879 146.281 31.0757 143.723 31.0757Z" fill="white"/>
<path d="M175.297 13.4929C175.353 13.4366 175.508 13.0712 175.761 12.3966C177.082 12.3966 178.853 12.7901 181.074 13.5772C180.371 15.9103 179.809 18.3559 179.387 20.9139C178.966 23.4438 178.755 25.2569 178.755 26.3532C178.755 27.4214 178.867 27.9555 179.092 27.9555C179.261 27.9555 179.879 27.6885 180.947 27.1544L181.453 26.9014L182.212 28.3772C181.959 28.602 181.622 28.8831 181.2 29.2205C180.807 29.5578 180.048 30.0216 178.923 30.6119C177.799 31.1741 176.787 31.4552 175.887 31.4552C174.145 31.4552 173.133 30.6681 172.852 29.094C171.053 30.6681 169.422 31.4552 167.96 31.4552C166.527 31.4552 165.304 30.893 164.292 29.7686C163.308 28.6442 162.816 26.8733 162.816 24.4558C162.816 20.689 163.589 17.7234 165.135 15.5589C166.681 13.3664 168.551 12.2701 170.743 12.2701C172.317 12.2701 173.835 12.6777 175.297 13.4929ZM170.49 27.8712C171.165 27.8712 171.924 27.6041 172.767 27.07C172.964 23.1065 173.625 19.1852 174.749 15.306C173.906 14.9405 173.189 14.7578 172.599 14.7578C171.587 14.7578 170.715 15.7557 169.984 17.7515C169.282 19.7192 168.93 21.8978 168.93 24.2871C168.93 26.6765 169.45 27.8712 170.49 27.8712Z" fill="white"/>
<path d="M181.557 23.6547C181.557 20.1409 182.611 17.372 184.72 15.3481C186.856 13.2961 189.274 12.2701 191.972 12.2701C193.631 12.2701 194.994 12.6777 196.062 13.4929C197.13 14.308 197.664 15.4043 197.664 16.7817C197.664 18.131 197.313 19.2695 196.61 20.1971C195.936 21.1247 195.106 21.8416 194.123 22.3475C192.127 23.3314 190.3 23.9498 188.641 24.2028L187.629 24.3293C187.826 26.9717 188.908 28.2928 190.876 28.2928C191.551 28.2928 192.267 28.1242 193.026 27.7868C193.785 27.4495 194.376 27.1122 194.797 26.7749L195.43 26.2689L196.442 27.6182C196.217 27.9274 195.767 28.335 195.092 28.841C194.418 29.347 193.785 29.7686 193.195 30.1059C191.565 31.0055 189.78 31.4552 187.84 31.4552C185.9 31.4552 184.368 30.7665 183.244 29.3891C182.12 28.0117 181.557 26.1002 181.557 23.6547ZM187.587 22.2632C189.021 22.0102 190.159 21.4059 191.002 20.4501C191.846 19.4944 192.267 18.2575 192.267 16.7396C192.267 15.2216 191.818 14.4627 190.918 14.4627C189.85 14.4627 189.021 15.3762 188.43 17.2034C187.868 19.0024 187.587 20.689 187.587 22.2632Z" fill="white"/>
<defs>
<linearGradient id="paint0_linear" x1="101.245" y1="2.40936" x2="101.245" y2="42.8048" gradientUnits="userSpaceOnUse">
<stop stop-color="#753DDB"/>
<stop offset="0.817708" stop-color="#E54E73"/>
</linearGradient>
<linearGradient id="paint1_linear" x1="101.245" y1="2.40936" x2="101.245" y2="42.8048" gradientUnits="userSpaceOnUse">
<stop stop-color="#753DDB"/>
<stop offset="0.817708" stop-color="#E54E73"/>
</linearGradient>
<linearGradient id="paint2_linear" x1="101.245" y1="2.40936" x2="101.245" y2="42.8048" gradientUnits="userSpaceOnUse">
<stop stop-color="#753DDB"/>
<stop offset="0.817708" stop-color="#E54E73"/>
</linearGradient>
<linearGradient id="paint3_linear" x1="101.245" y1="2.40936" x2="101.245" y2="42.8048" gradientUnits="userSpaceOnUse">
<stop stop-color="#753DDB"/>
<stop offset="0.817708" stop-color="#E54E73"/>
</linearGradient>
<linearGradient id="paint4_linear" x1="101.245" y1="2.40936" x2="101.245" y2="42.8048" gradientUnits="userSpaceOnUse">
<stop stop-color="#753DDB"/>
<stop offset="0.817708" stop-color="#E54E73"/>
</linearGradient>
<linearGradient id="paint5_linear" x1="101.245" y1="2.40936" x2="101.245" y2="42.8048" gradientUnits="userSpaceOnUse">
<stop stop-color="#753DDB"/>
<stop offset="0.817708" stop-color="#E54E73"/>
</linearGradient>
<linearGradient id="paint6_linear" x1="101.245" y1="2.40936" x2="101.245" y2="42.8048" gradientUnits="userSpaceOnUse">
<stop stop-color="#753DDB"/>
<stop offset="0.817708" stop-color="#E54E73"/>
</linearGradient>
<linearGradient id="paint7_linear" x1="101.245" y1="2.40936" x2="101.245" y2="42.8048" gradientUnits="userSpaceOnUse">
<stop stop-color="#753DDB"/>
<stop offset="0.817708" stop-color="#E54E73"/>
</linearGradient>
<linearGradient id="paint8_linear" x1="101.245" y1="2.40936" x2="101.245" y2="42.8048" gradientUnits="userSpaceOnUse">
<stop stop-color="#753DDB"/>
<stop offset="0.817708" stop-color="#E54E73"/>
</linearGradient>
<linearGradient id="paint9_linear" x1="101.245" y1="2.40936" x2="101.245" y2="42.8048" gradientUnits="userSpaceOnUse">
<stop stop-color="#753DDB"/>
<stop offset="0.817708" stop-color="#E54E73"/>
</linearGradient>
</defs>
</svg>
