<svg width="18" height="14" viewBox="0 0 18 14" fill="none" xmlns="http://www.w3.org/2000/svg">
<path d="M14.8334 0.333252H3.16675C2.50371 0.333252 1.86782 0.596644 1.39898 1.06548C0.93014 1.53433 0.666748 2.17021 0.666748 2.83325V11.1666C0.666748 11.8296 0.93014 12.4655 1.39898 12.9344C1.86782 13.4032 2.50371 13.6666 3.16675 13.6666H14.8334C15.4965 13.6666 16.1323 13.4032 16.6012 12.9344C17.07 12.4655 17.3334 11.8296 17.3334 11.1666V2.83325C17.3334 2.17021 17.07 1.53433 16.6012 1.06548C16.1323 0.596644 15.4965 0.333252 14.8334 0.333252ZM14.2751 1.99992L9.00008 5.95825L3.72508 1.99992H14.2751ZM14.8334 11.9999H3.16675C2.94573 11.9999 2.73377 11.9121 2.57749 11.7558C2.42121 11.5996 2.33341 11.3876 2.33341 11.1666V3.04158L8.50008 7.66658C8.64433 7.77477 8.81977 7.83325 9.00008 7.83325C9.18039 7.83325 9.35583 7.77477 9.50008 7.66658L15.6667 3.04158V11.1666C15.6667 11.3876 15.579 11.5996 15.4227 11.7558C15.2664 11.9121 15.0544 11.9999 14.8334 11.9999Z" fill="#FF5F5F"/>
</svg>
