<svg width="100" height="13" viewBox="0 0 100 13" fill="none" xmlns="http://www.w3.org/2000/svg">
<path d="M84.6448 -7.39988e-06C80.3667 -7.02588e-06 78.3041 2.9759 76.4706 5.56023C74.6371 8.22289 73.3384 9.86746 70.8174 9.86746C68.2964 9.86746 66.9977 8.22289 65.1643 5.56024C63.3308 2.89759 61.2682 -5.35623e-06 56.9901 -4.98223e-06C52.712 -4.60823e-06 50.6494 2.9759 48.8159 5.56024C46.9824 8.22289 45.6837 9.86747 43.1627 9.86747C40.6417 9.86747 39.343 8.22289 37.5096 5.56024C35.6761 2.89759 33.6135 -2.93858e-06 29.3354 -2.56458e-06C25.0573 -2.19058e-06 22.9947 2.9759 21.1612 5.56024C19.175 8.22289 17.9526 9.86747 15.3552 9.86747C12.8342 9.86747 11.5355 8.22289 9.70207 5.56024C7.86861 2.89759 5.80596 -5.07573e-07 1.52788 -1.33572e-07C0.687547 -6.01073e-08 -1.07488e-06 0.70482 -9.99569e-07 1.56627C-9.24259e-07 2.42771 0.687547 3.13253 1.52788 3.13253C4.04889 3.13253 5.3476 4.77711 7.18106 7.43976C9.09092 10.0241 11.1536 13 15.3552 13C19.6333 13 21.696 10.0241 23.5294 7.43976C25.3629 4.77711 26.6616 3.13253 29.1826 3.13253C31.7036 3.13253 33.0023 4.77711 34.8358 7.43976C36.7456 10.0241 38.8083 13 43.0863 13C47.3644 13 49.4271 10.0241 51.2605 7.43975C53.094 4.7771 54.3927 3.13253 56.9137 3.13253C59.4347 3.13253 60.7334 4.7771 62.5669 7.43975C64.4767 10.0241 66.5394 13 70.8174 13C75.0955 13 77.1581 10.0241 78.9916 7.43975C80.8251 4.7771 82.1238 3.13252 84.6448 3.13252C87.1658 3.13252 88.4645 4.7771 90.298 7.43975C92.1314 10.1024 94.194 13 98.4721 13C99.3125 13 100 12.2952 100 11.4337C100 10.5723 99.3125 9.86746 98.4721 9.86746C95.9511 9.86746 94.6524 8.22288 92.819 5.56023C90.9855 2.9759 88.9229 -7.77388e-06 84.6448 -7.39988e-06Z" fill="url(#paint0_linear)"/>
<defs>
<linearGradient id="paint0_linear" x1="4.58365" y1="9.4759" x2="97.8432" y2="-0.963781" gradientUnits="userSpaceOnUse">
<stop stop-color="#FF5F5F"/>
<stop offset="1" stop-color="#753DDB"/>
</linearGradient>
</defs>
</svg>
