<svg width="13" height="100" viewBox="0 0 13 100" fill="none" xmlns="http://www.w3.org/2000/svg">
<path d="M-3.69994e-06 15.3552C-3.51294e-06 19.6333 2.9759 21.6959 5.56024 23.5294C8.22289 25.3629 9.86747 26.6616 9.86747 29.1826C9.86747 31.7036 8.22289 33.0023 5.56024 34.8357C2.89759 36.6692 -2.67812e-06 38.7318 -2.49112e-06 43.0099C-2.30411e-06 47.288 2.9759 49.3506 5.56024 51.1841C8.22289 53.0176 9.86747 54.3163 9.86747 56.8373C9.86747 59.3583 8.22289 60.657 5.56024 62.4904C2.89759 64.3239 -1.46929e-06 66.3865 -1.28229e-06 70.6646C-1.09529e-06 74.9427 2.9759 77.0053 5.56024 78.8388C8.22289 80.825 9.86747 82.0474 9.86747 84.6448C9.86747 87.1658 8.22289 88.4645 5.56024 90.2979C2.89759 92.1314 -2.53787e-07 94.194 -6.67859e-08 98.4721C-3.00537e-08 99.3125 0.70482 100 1.56627 100C2.42771 100 3.13253 99.3125 3.13253 98.4721C3.13253 95.9511 4.77711 94.6524 7.43976 92.8189C10.0241 90.9091 13 88.8464 13 84.6448C13 80.3667 10.0241 78.304 7.43976 76.4706C4.77711 74.6371 3.13253 73.3384 3.13253 70.8174C3.13253 68.2964 4.77711 66.9977 7.43976 65.1642C10.0241 63.2544 13 61.1917 13 56.9137C13 52.6356 10.0241 50.5729 7.43976 48.7395C4.77711 46.906 3.13253 45.6073 3.13253 43.0863C3.13253 40.5653 4.77711 39.2666 7.43976 37.4331C10.0241 35.5233 13 33.4606 13 29.1826C13 24.9045 10.0241 22.8419 7.43976 21.0084C4.77711 19.1749 3.13253 17.8762 3.13253 15.3552C3.13253 12.8342 4.77711 11.5355 7.43976 9.70205C10.1024 7.86858 13 5.80595 13 1.52788C13 0.687546 12.2952 3.08086e-08 11.4337 6.84636e-08C10.5723 1.06119e-07 9.86747 0.687546 9.86747 1.52788C9.86747 4.04889 8.22289 5.34759 5.56024 7.18105C2.9759 9.01451 -3.88694e-06 11.0771 -3.69994e-06 15.3552Z" fill="url(#paint0_linear)"/>
<defs>
<linearGradient id="paint0_linear" x1="9.4759" y1="95.4163" x2="-0.963776" y2="2.15675" gradientUnits="userSpaceOnUse">
<stop stop-color="#FF5F5F"/>
<stop offset="1" stop-color="#753DDB"/>
</linearGradient>
</defs>
</svg>
